<svg xmlns="http://www.w3.org/2000/svg" id="Lager_2" width="38.85mm" height="13.25mm" viewBox="0 0 110.13 37.56"><g id="Lager_1-2"><polygon points="66.57 31.53 73.56 .32 68.72 .32 61.73 31.53 66.57 31.53" fill="#e85426"></polygon><polygon points="65.8 .32 60.96 .32 59.93 4.91 64.77 4.91 65.8 .32" fill="#e85426"></polygon><polygon points="58.84 31.53 64.42 6.48 59.58 6.48 53.99 31.53 58.84 31.53" fill="#e85426"></polygon><path d="M16.69,7.25l-3.91,17.42c-.19.99-2.25,2.34-4.36,2.34s-3.53-1.35-3.3-2.34l3.88-17.39c.19-1,2.24-2.34,4.36-2.34,2.15-.03,3.56,1.31,3.34,2.31M17.46,25.34l4.2-18.73v-.03l.03-.06c.71-3.43-1.7-6.51-7.22-6.51S5.11,3.05,4.34,6.48v.03L.14,25.31c-.77,3.5,1.67,6.61,7.18,6.61s9.4-3.11,10.14-6.58" fill="#e85426"></path><path d="M35.42,13.28l-2.57,11.55c-.22.99-2.24,2.21-4.36,2.21-1.8,0-3.37,0-3.82-.03l3.08-13.73c.19-1,2.24-2.34,4.36-2.34s3.53,1.35,3.3,2.34M40.39,12.64h0c.77-3.46-1.64-6.61-7.19-6.61s-9.37,3.08-10.14,6.54l-5.58,24.99h4.84l2.18-9.72s3.46,4.07,4.84,4.07c4.33,0,7.44-2.95,8.18-6.41v-.03l2.86-12.83Z" fill="#e85426"></path><path d="M40.2,25.34l-.03.13c-.64,3.21,1.03,6.06,5.29,6.06h6.7l.99-4.49h-5.23c-2.02-.03-2.92-1.44-2.7-2.73l2.98-13.31h8.37l.99-4.49h-8.37l.93-4.17h-4.84l-5.1,23Z" fill="#e85426"></path><path d="M75.45,24.86l2.6-11.58c.22-1,2.25-2.31,4.36-2.31s3.53,1.35,3.34,2.34l-2.57,11.51c-.22.99-2.28,2.31-4.36,2.31-2.12-.03-3.5-1.28-3.37-2.28M73.34,12.61l-2.86,12.8v.03l-.03.19c-.61,3.37,1.83,6.35,7.25,6.35s9.37-3.01,10.14-6.48l2.89-12.9c.77-3.46-1.67-6.58-7.19-6.58-5.61.03-9.43,3.11-10.2,6.58" fill="#e85426"></path><path d="M104.64,6.48h-10.1l-5.58,25.02h4.84l4.59-20.53h3.78c2.09.03,3.02,1.51,2.7,2.82l-3.98,17.74h4.84l4.23-18.96c.74-3.27-.99-6.1-5.32-6.1" fill="#e85426"></path></g></svg>