<?xml version="1.0" encoding="UTF-8"?>
<svg version="1.1" xmlns="http://www.w3.org/2000/svg" width="200" height="216">
<path d="M0,0 L2,0 L2,37 L1,37 L1,36 L-3,36 L-3,35 L-9,35 L-9,34 L-14,34 L-14,33 L-19,33 L-19,32 L-24,32 L-24,31 L-30,31 L-30,30 L-34,30 L-34,29 L-40,29 L-40,28 L-44,28 L-44,27 L-50,27 L-50,26 L-55,26 L-55,25 L-61,25 L-61,24 L-65,24 L-65,23 L-71,23 L-71,22 L-75,22 L-75,21 L-81,21 L-81,20 L-86,20 L-86,19 L-91,19 L-91,18 L-96,18 L-96,17 L-101,17 L-101,16 L-102,16 L-102,15 L-95,15 L-95,14 L-90,14 L-90,13 L-82,13 L-82,12 L-76,12 L-76,11 L-68,11 L-68,10 L-63,10 L-63,9 L-55,9 L-55,8 L-49,8 L-49,7 L-41,7 L-41,6 L-35,6 L-35,5 L-27,5 L-27,4 L-21,4 L-21,3 L-13,3 L-13,2 L-8,2 L-8,1 L0,1 Z " fill="#00CFFF" transform="translate(171,43)"/>
<path d="M0,0 L4,0 L4,134 L-136,134 L-136,116 L-131,116 L-131,130 L0,130 Z " fill="#000000" transform="translate(168,82)"/>
<path d="M0,0 L55,0 L55,2 L56,2 L56,10 L57,10 L57,19 L-2,19 L-2,18 L-1,18 L-1,5 L0,5 Z " fill="#000000" transform="translate(7,178)"/>
<path d="M0,0 L49,0 L49,1 L50,1 L50,5 L51,5 L51,14 L52,14 L52,20 L-2,20 L-2,8 L-1,8 L-1,1 L0,1 Z " fill="#000000" transform="translate(10,154)"/>
<path d="M0,0 L1,0 L1,1 L2,1 L2,2 L3,2 L3,3 L4,3 L4,4 L5,4 L5,6 L6,6 L6,7 L7,7 L7,8 L8,8 L8,9 L9,9 L9,10 L10,10 L10,12 L11,12 L11,13 L12,13 L12,14 L13,14 L13,15 L14,15 L14,16 L15,16 L15,18 L16,18 L16,19 L17,19 L17,20 L18,20 L18,21 L19,21 L19,22 L20,22 L20,24 L21,24 L21,25 L22,25 L22,26 L23,26 L23,29 L20,29 L20,48 L14,48 L14,29 L4,29 L4,48 L-2,48 L-2,29 L-13,29 L-13,48 L-18,48 L-18,29 L-22,29 L-22,26 L-21,26 L-21,25 L-20,25 L-20,24 L-19,24 L-19,23 L-18,23 L-18,21 L-16,21 L-16,19 L-15,19 L-15,18 L-14,18 L-14,17 L-13,17 L-13,16 L-12,16 L-12,14 L-11,14 L-11,13 L-10,13 L-10,12 L-9,12 L-9,11 L-8,11 L-8,9 L-7,9 L-7,8 L-6,8 L-6,7 L-5,7 L-5,6 L-4,6 L-4,5 L-3,5 L-3,4 L-2,4 L-2,2 L-1,2 L-1,1 L0,1 Z " fill="#000000" transform="translate(34,21)"/>
<path d="M0,0 L46,0 L46,8 L47,8 L47,17 L48,17 L48,18 L47,18 L47,19 L46,19 L46,20 L-1,20 L-1,19 L-2,19 L-2,11 L-1,11 L-1,2 L0,2 Z " fill="#000000" transform="translate(12,131)"/>
<path d="M0,0 L40,0 L40,1 L42,1 L42,8 L43,8 L43,20 L-1,20 L-1,19 L-2,19 L-2,13 L-1,13 L-1,4 L0,4 Z " fill="#000000" transform="translate(14,108)"/>
<path d="M0,0 L140,0 L140,41 L136,41 L136,4 L5,4 L5,20 L1,20 L1,19 L0,19 Z " fill="#000000" transform="translate(32,0)"/>
<path d="M0,0 L35,0 L35,1 L37,1 L37,10 L38,10 L38,18 L37,18 L37,19 L-1,19 L-1,18 L-3,18 L-3,13 L-2,13 L-2,5 L-1,5 L-1,1 L0,1 Z " fill="#000000" transform="translate(17,86)"/>
<path d="M0,0 L58,0 L58,8 L0,8 Z " fill="#000000" transform="translate(6,75)"/>
<path d="M0,0 L4,0 L4,9 L12,9 L12,0 L16,0 L16,22 L12,22 L12,13 L4,13 L4,22 L0,22 Z " fill="#000000" transform="translate(87,169)"/>
<path d="M0,0 L2,0 L2,1 L6,1 L6,2 L7,2 L7,4 L8,4 L8,13 L7,13 L7,15 L5,15 L5,16 L-2,16 L-2,15 L-3,15 L-3,14 L-4,14 L-4,13 L-5,13 L-5,3 L-4,3 L-4,2 L-3,2 L-3,1 L0,1 Z M1,4 L1,5 L-1,5 L-1,6 L4,6 L4,5 L3,5 L3,4 Z M-1,10 L-1,12 L3,12 L3,11 L4,11 L4,10 Z " fill="#000000" transform="translate(111,175)"/>
<path d="M0,0 L2,0 L2,1 L6,1 L6,2 L7,2 L7,4 L8,4 L8,7 L6,7 L6,8 L7,8 L7,9 L8,9 L8,13 L7,13 L7,15 L5,15 L5,16 L-3,16 L-3,15 L-4,15 L-4,14 L-5,14 L-5,10 L-3,10 L-3,9 L-4,9 L-4,8 L-5,8 L-5,2 L-4,2 L-4,1 L0,1 Z M1,4 L1,5 L-1,5 L-1,6 L1,6 L1,7 L4,7 L4,5 L3,5 L3,4 Z M-1,10 L-1,12 L4,12 L4,11 L1,11 L1,10 Z " fill="#000000" transform="translate(157,175)"/>
<path d="M0,0 L2,0 L2,1 L4,1 L4,0 L8,0 L8,16 L-3,16 L-3,15 L-4,15 L-4,14 L-5,14 L-5,3 L-4,3 L-4,2 L-3,2 L-3,1 L0,1 Z M1,4 L1,5 L-1,5 L-1,12 L3,12 L3,11 L4,11 L4,6 L3,6 L3,5 L2,5 L2,4 Z " fill="#000000" transform="translate(141,175)"/>
<path d="M0,0 L16,0 L16,4 L10,4 L10,22 L6,22 L6,4 L0,4 Z " fill="#000000" transform="translate(68,169)"/>
<path d="M0,0 L4,0 L4,22 L0,22 Z " fill="#000000" transform="translate(129,169)"/>
<path d="M0,0 L4,0 L4,22 L0,22 Z " fill="#000000" transform="translate(122,169)"/>
</svg>
