<?xml version="1.0" encoding="UTF-8"?>
<svg version="1.1" xmlns="http://www.w3.org/2000/svg" width="486" height="120">
<path d="M0 0 C1.13046501 -0.00855011 1.13046501 -0.00855011 2.2837677 -0.01727295 C3.88000082 -0.02671574 5.47625337 -0.03325407 7.07250977 -0.03710938 C9.49335676 -0.04677054 11.91333817 -0.07778096 14.33398438 -0.109375 C15.88931791 -0.11591014 17.44465748 -0.1211586 19 -0.125 C19.71488083 -0.1373468 20.42976166 -0.1496936 21.16630554 -0.16241455 C26.47448307 -0.13934175 30.44690671 1.12580729 35.33203125 3.203125 C35.33203125 3.863125 35.33203125 4.523125 35.33203125 5.203125 C36.20601562 5.35974609 36.20601562 5.35974609 37.09765625 5.51953125 C39.66848548 6.30606117 41.06603705 7.37878391 43.08203125 9.140625 C43.695625 9.66527344 44.30921875 10.18992187 44.94140625 10.73046875 C46.33203125 12.203125 46.33203125 12.203125 46.33203125 14.203125 C46.99203125 14.203125 47.65203125 14.203125 48.33203125 14.203125 C54.90473455 26.44541207 57.52731491 37.08520521 53.76953125 50.890625 C49.89976978 62.11159424 42.73481092 68.67001387 32.33203125 74.203125 C24.84540335 77.15009063 16.87313283 76.49864438 8.93554688 76.41796875 C2.06287248 76.52119783 -2.03022466 77.20493121 -7.18188477 81.91699219 C-8.66796875 83.203125 -8.66796875 83.203125 -10.66796875 83.203125 C-10.66796875 83.863125 -10.66796875 84.523125 -10.66796875 85.203125 C-19.46804164 88.73181723 -27.22204322 89.85327824 -36.66796875 89.765625 C-37.84875 89.78947266 -39.02953125 89.81332031 -40.24609375 89.83789062 C-50.98680152 89.82014717 -60.10053685 86.68093937 -68.66796875 80.203125 C-69.46976563 79.61144531 -70.2715625 79.01976563 -71.09765625 78.41015625 C-78.3290343 72.20084227 -81.54471938 63.57041851 -82.50439453 54.28173828 C-83.19457035 43.90931108 -81.06908173 34.66388439 -74.6328125 26.390625 C-66.43927321 17.26859319 -58.00918351 12.43015696 -45.66796875 11.203125 C-41.33665612 11.14709469 -37.00548779 11.2603718 -32.68530273 11.57739258 C-28.00133494 11.78035363 -25.43443188 11.48329888 -21.8359375 8.3359375 C-20.77904667 7.29257881 -19.72294428 6.24842027 -18.66796875 5.203125 C-16.33984375 3.77734375 -16.33984375 3.77734375 -14.41796875 2.890625 C-13.7734375 2.58511719 -13.12890625 2.27960937 -12.46484375 1.96484375 C-8.24904481 0.17771159 -4.50419573 0.02640308 0 0 Z M-8.66796875 16.203125 C-7.96622871 19.4196699 -7.96622871 19.4196699 -5.04296875 20.703125 C2.19180204 25.28805203 6.02717906 34.3831138 7.90625 42.4296875 C8.88587742 48.81074687 8.73076902 54.90880503 7.33203125 61.203125 C20.30723469 62.31697643 20.30723469 62.31697643 31.66796875 56.90625 C37.24275665 51.20059853 38.94174968 45.49622231 39.64453125 37.765625 C38.95735861 29.93185696 36.38244918 23.4445734 30.33203125 18.203125 C29.67203125 18.203125 29.01203125 18.203125 28.33203125 18.203125 C28.33203125 17.543125 28.33203125 16.883125 28.33203125 16.203125 C22.32302319 13.53715663 16.27217241 13.9084535 9.83203125 13.953125 C8.71699219 13.94539063 7.60195312 13.93765625 6.453125 13.9296875 C1.05004849 13.9425673 -3.63680572 13.97098929 -8.66796875 16.203125 Z M-52.66796875 27.203125 C-52.66796875 27.863125 -52.66796875 28.523125 -52.66796875 29.203125 C-53.75078125 29.5125 -53.75078125 29.5125 -54.85546875 29.828125 C-58.64015259 31.67841488 -60.19055528 33.80552938 -62.66796875 37.203125 C-62.66796875 37.863125 -62.66796875 38.523125 -62.66796875 39.203125 C-63.32796875 39.203125 -63.98796875 39.203125 -64.66796875 39.203125 C-66.09667197 44.51648407 -67.08830161 48.75851569 -65.66796875 54.203125 C-65.26578125 55.935625 -65.26578125 55.935625 -64.85546875 57.703125 C-62.37645243 65.00969941 -58.06013004 69.17356952 -51.66796875 73.203125 C-46.84312879 74.81140499 -41.90776341 74.3876443 -36.85546875 74.390625 C-35.23415039 74.40899414 -35.23415039 74.40899414 -33.58007812 74.42773438 C-28.23047938 74.43758631 -23.65505547 74.40510221 -18.66796875 72.203125 C-20.00183336 69.12800856 -21.31609322 67.46174513 -23.98046875 65.453125 C-31.93601208 58.80420937 -34.7981259 50.08607586 -35.91796875 39.9375 C-36.07034334 35.0996069 -34.98389923 30.80888168 -33.66796875 26.203125 C-35.89706746 26.17597765 -38.12626242 26.15666246 -40.35546875 26.140625 C-41.59683594 26.12902344 -42.83820313 26.11742188 -44.1171875 26.10546875 C-47.13032329 26.18833827 -49.75072214 26.49473051 -52.66796875 27.203125 Z M-18.66796875 30.203125 C-21.38774512 35.48269089 -20.45756824 39.35565742 -18.9140625 44.921875 C-16.93716603 51.07589582 -15.19098254 54.721225 -9.66796875 58.203125 C-9.00796875 58.203125 -8.34796875 58.203125 -7.66796875 58.203125 C-5.20258793 50.80698253 -6.87845556 44.16968127 -9.66796875 37.203125 C-9.99796875 36.543125 -10.32796875 35.883125 -10.66796875 35.203125 C-11.32796875 35.203125 -11.98796875 35.203125 -12.66796875 35.203125 C-12.99796875 34.213125 -13.32796875 33.223125 -13.66796875 32.203125 C-14.32796875 32.203125 -14.98796875 32.203125 -15.66796875 32.203125 C-15.66796875 31.543125 -15.66796875 30.883125 -15.66796875 30.203125 C-16.65796875 30.203125 -17.64796875 30.203125 -18.66796875 30.203125 Z " fill="#004178" transform="translate(221.66796875,6.796875)"/>
<path d="M0 0 C10.085625 -0.1546875 10.085625 -0.1546875 20.375 -0.3125 C23.52748291 -0.38078003 23.52748291 -0.38078003 26.74365234 -0.45043945 C44.52529995 -0.67059438 44.52529995 -0.67059438 52 5 C52 5.66 52 6.32 52 7 C52.66 7 53.32 7 54 7 C57.64332727 11.37199273 58.13857729 16.48289161 58 22 C56.34267603 27.43233966 53.38459342 31.51770061 50 36 C50.60585938 36.11730469 51.21171875 36.23460937 51.8359375 36.35546875 C55.63137053 37.48587751 58.04552362 40.49537404 60.125 43.7734375 C62.18053175 49.0040317 61.97401465 55.94633246 60.27734375 61.265625 C57.06325476 67.25137777 52.38510809 70.09218756 46.2578125 72.38671875 C31.86327706 76.29665312 12.59588928 74 0 74 C0 49.58 0 25.16 0 0 Z M14 14 C14 19.28 14 24.56 14 30 C17.18842705 30.10859354 20.37310727 30.18759399 23.5625 30.25 C24.90538086 30.30027344 24.90538086 30.30027344 26.27539062 30.3515625 C32.41630616 30.44153928 35.9950046 29.6277819 41 26 C42.39935013 23.20129973 42.25265405 21.09501208 42 18 C40.45493534 15.96332385 39.27853844 15.13926922 37 14 C35.2595583 13.91550372 33.51590278 13.89276976 31.7734375 13.90234375 C30.2265625 13.90717773 30.2265625 13.90717773 28.6484375 13.91210938 C27.56820313 13.92048828 26.48796875 13.92886719 25.375 13.9375 C24.28703125 13.94201172 23.1990625 13.94652344 22.078125 13.95117188 C19.38539338 13.9629821 16.69268991 13.98091795 14 14 Z M14 43 C14 48.28 14 53.56 14 59 C18.39685683 59.13487291 22.7895828 59.23408579 27.1875 59.3125 C28.43337891 59.35439453 29.67925781 59.39628906 30.96289062 59.43945312 C38.20020791 59.85351152 38.20020791 59.85351152 44.3515625 56.703125 C46.2818301 54.01932786 46.2818301 54.01932786 46.1875 50.4375 C45.00025004 47.00072381 44.15564501 45.68759082 41.10180664 43.78735352 C36.36079933 42.0113344 31.10907468 42.60374047 26.125 42.75 C24.9596875 42.76804688 23.794375 42.78609375 22.59375 42.8046875 C19.72881189 42.8516537 16.86429876 42.92339171 14 43 Z " fill="#00427A" transform="translate(3,14)"/>
<path d="M0 0 C1.36065331 -0.01210762 1.36065331 -0.01210762 2.74879456 -0.02445984 C4.67813189 -0.03832687 6.60749403 -0.04903724 8.53686523 -0.05688477 C11.46061519 -0.07396584 14.38319517 -0.117811 17.30664062 -0.16210938 C19.18358545 -0.17224776 21.06053989 -0.18076026 22.9375 -0.1875 C24.23342323 -0.21376213 24.23342323 -0.21376213 25.55552673 -0.24055481 C33.24164109 -0.21368594 39.97462561 1.73854371 46.00390625 6.61328125 C51.36814169 13.44048999 52.42979328 20.12945071 51.921875 28.66796875 C50.82045941 35.66377327 46.78169999 40.36479698 41.2734375 44.625 C39.90635947 45.55045663 38.49113109 46.40429598 37.06640625 47.23828125 C37.6078125 47.96144531 37.6078125 47.96144531 38.16015625 48.69921875 C38.62421875 49.33085938 39.08828125 49.9625 39.56640625 50.61328125 C40.03046875 51.23976562 40.49453125 51.86625 40.97265625 52.51171875 C42.06640625 54.23828125 42.06640625 54.23828125 42.06640625 56.23828125 C42.72640625 56.23828125 43.38640625 56.23828125 44.06640625 56.23828125 C45.46819194 58.14821426 46.78930997 60.11781832 48.06640625 62.11328125 C50.77629455 66.40983305 50.77629455 66.40983305 54.06640625 70.23828125 C54.06640625 71.55828125 54.06640625 72.87828125 54.06640625 74.23828125 C51.5021211 74.373878 48.94505409 74.47261313 46.37890625 74.55078125 C45.65767578 74.59267578 44.93644531 74.63457031 44.19335938 74.67773438 C40.21687767 74.76852163 38.57276652 74.63034877 35.33203125 72.12109375 C32.9438261 69.08230858 30.65478699 66.01021062 28.50390625 62.80078125 C28.13072266 62.25357422 27.75753906 61.70636719 27.37304688 61.14257812 C25.52873447 58.43224077 23.8099193 55.76649905 22.2421875 52.8828125 C20.24681933 49.91147548 20.24681933 49.91147548 16.61328125 49.43359375 C15.3603125 49.41039062 14.10734375 49.3871875 12.81640625 49.36328125 C11.553125 49.32460938 10.28984375 49.2859375 8.98828125 49.24609375 C8.0240625 49.24351563 7.05984375 49.2409375 6.06640625 49.23828125 C6.07426147 50.3209729 6.07426147 50.3209729 6.08227539 51.42553711 C6.10297983 54.67560974 6.11604543 57.92566853 6.12890625 61.17578125 C6.13728516 62.31208984 6.14566406 63.44839844 6.15429688 64.61914062 C6.15913086 66.23852539 6.15913086 66.23852539 6.1640625 67.890625 C6.17191772 69.3909729 6.17191772 69.3909729 6.17993164 70.92163086 C6.06640625 73.23828125 6.06640625 73.23828125 5.06640625 74.23828125 C2.7132707 74.31099866 0.35806957 74.32198993 -1.99609375 74.30078125 C-3.93162109 74.28724609 -3.93162109 74.28724609 -5.90625 74.2734375 C-6.90527344 74.26183594 -7.90429688 74.25023438 -8.93359375 74.23828125 C-10.39132269 71.32282338 -10.06092227 68.76554845 -10.06298828 65.50952148 C-10.0647406 64.81833221 -10.06649292 64.12714294 -10.06829834 63.41500854 C-10.07270717 61.12560532 -10.06978259 58.83627904 -10.06640625 56.546875 C-10.06707949 54.96029139 -10.06804968 53.37370789 -10.06930542 51.78712463 C-10.07078101 48.46069355 -10.06863198 45.1342893 -10.06396484 41.80786133 C-10.05826299 37.53473244 -10.06155031 33.26166629 -10.06753731 28.9885397 C-10.07114269 25.71242292 -10.07000452 22.43632115 -10.06740952 19.16020393 C-10.06674042 17.58406632 -10.06756805 16.00792736 -10.06988907 14.43179131 C-10.07241573 12.23370608 -10.06857506 10.03572399 -10.06298828 7.83764648 C-10.06219269 6.58459213 -10.06139709 5.33153778 -10.06057739 4.04051208 C-9.79624956 -1.79258258 -4.65957697 0.03901754 0 0 Z M6.06640625 14.23828125 C6.06640625 21.16828125 6.06640625 28.09828125 6.06640625 35.23828125 C11.07828125 35.33109375 11.07828125 35.33109375 16.19140625 35.42578125 C17.23312988 35.45309326 18.27485352 35.48040527 19.34814453 35.50854492 C25.63185461 35.5647466 30.16136868 34.94964965 34.94140625 30.48828125 C36.56980982 27.23147411 36.44473711 24.83242438 36.06640625 21.23828125 C34.36886386 17.41881086 32.92355558 15.75292618 29.06640625 14.23828125 C26.45594315 13.96448839 26.45594315 13.96448839 23.64453125 14.04296875 C22.61972656 14.04941406 21.59492187 14.05585938 20.5390625 14.0625 C18.94384766 14.08763672 18.94384766 14.08763672 17.31640625 14.11328125 C16.23746094 14.12230469 15.15851563 14.13132812 14.046875 14.140625 C11.38662376 14.16416705 8.72648676 14.20003728 6.06640625 14.23828125 Z " fill="#00467C" transform="translate(82.93359375,13.76171875)"/>
<path d="M0 0 C0.97484848 0.00222061 1.94969696 0.00444122 2.9540863 0.00672913 C4.05515213 0.00680466 5.15621796 0.00688019 6.29064941 0.00695801 C8.08749428 0.01469994 8.08749428 0.01469994 9.92063904 0.02259827 C11.14000656 0.02401321 12.35937408 0.02542816 13.61569214 0.02688599 C17.52856349 0.03250485 21.4413786 0.04506055 25.35423279 0.05775452 C27.99941426 0.06276709 30.64459662 0.06733041 33.28977966 0.07142639 C39.79045253 0.08248041 46.29108311 0.09975768 52.79173279 0.12025452 C52.79173279 4.74025452 52.79173279 9.36025452 52.79173279 14.12025452 C39.92173279 14.12025452 27.05173279 14.12025452 13.79173279 14.12025452 C13.79173279 18.74025452 13.79173279 23.36025452 13.79173279 28.12025452 C13.46173279 28.78025452 13.13173279 29.44025452 12.79173279 30.12025452 C24.67173279 30.12025452 36.55173279 30.12025452 48.79173279 30.12025452 C48.79173279 34.41025452 48.79173279 38.70025452 48.79173279 43.12025452 C31.46673279 43.61525452 31.46673279 43.61525452 13.79173279 44.12025452 C13.79173279 49.07025452 13.79173279 54.02025452 13.79173279 59.12025452 C15.55601624 59.11239929 15.55601624 59.11239929 17.35594177 59.10438538 C21.7037531 59.08633789 26.05156109 59.07482344 30.3993988 59.06532288 C32.28417008 59.06028208 34.16893744 59.05344953 36.05369568 59.04481506 C38.75674915 59.03273835 41.4597511 59.02702383 44.16282654 59.02259827 C45.01074265 59.01743698 45.85865875 59.0122757 46.73226929 59.00695801 C48.75244347 59.00676257 50.77251213 59.05819241 52.79173279 59.12025452 C53.79173279 60.12025452 53.79173279 60.12025452 53.88938904 63.28041077 C53.87778748 64.5681842 53.86618591 65.85595764 53.85423279 67.18275452 C53.84520935 68.47310608 53.83618591 69.76345764 53.82688904 71.09291077 C53.81528748 72.0919342 53.80368591 73.09095764 53.79173279 74.12025452 C45.99553691 74.17083076 38.19938309 74.20593566 30.40306091 74.2301178 C27.74907348 74.24019541 25.09509719 74.25385765 22.44114685 74.27113342 C18.63350172 74.29530443 14.82600295 74.30671986 11.01829529 74.31556702 C9.22919235 74.33105087 9.22919235 74.33105087 7.40394592 74.34684753 C5.75246048 74.34707413 5.75246048 74.34707413 4.06761169 74.3473053 C2.60866989 74.35396713 2.60866989 74.35396713 1.12025452 74.36076355 C-1.20826721 74.12025452 -1.20826721 74.12025452 -3.20826721 72.12025452 C-3.45550537 69.19104004 -3.45550537 69.19104004 -3.45118713 65.39149475 C-3.45308548 64.70030548 -3.45498383 64.00911621 -3.4569397 63.29698181 C-3.46065087 61.00748936 -3.44993958 58.71831262 -3.43873596 56.42884827 C-3.43754435 54.84226519 -3.43709096 53.2556814 -3.43734741 51.6690979 C-3.43578202 48.34263194 -3.42748741 45.01627351 -3.41407776 41.68983459 C-3.397074 37.41669797 -3.39326377 33.14367946 -3.39402294 28.87051296 C-3.39375161 25.59438948 -3.38827655 22.31829204 -3.3810215 19.0421772 C-3.37782996 17.46604166 -3.3758663 15.88990317 -3.37512779 14.31376457 C-3.37297012 12.11566465 -3.36423886 9.91769244 -3.35353088 7.71961975 C-3.34781319 5.84003822 -3.34781319 5.84003822 -3.34197998 3.92248535 C-3.1630316 0.17224765 -3.1630316 0.17224765 0 0 Z " fill="#00407A" transform="translate(358.20826721191406,13.879745483398438)"/>
<path d="M0 0 C0 4 0 4 -1.49609375 5.6328125 C-2.45708984 6.37144531 -2.45708984 6.37144531 -3.4375 7.125 C-6.16570285 9.18871481 -6.16570285 9.18871481 -8 12 C-8.66 12 -9.32 12 -10 12 C-10.25378418 12.57975586 -10.50756836 13.15951172 -10.76904297 13.75683594 C-12.13758615 16.25072223 -13.66997769 17.89743836 -15.6953125 19.890625 C-16.41074219 20.59960938 -17.12617188 21.30859375 -17.86328125 22.0390625 C-18.98283203 23.13347656 -18.98283203 23.13347656 -20.125 24.25 C-20.87910156 24.99507812 -21.63320313 25.74015625 -22.41015625 26.5078125 C-24.26900772 28.3431342 -26.13237005 30.1736191 -28 32 C-27.505 32.78375 -27.01 33.5675 -26.5 34.375 C-25 37 -25 37 -25 39 C-24.34 39 -23.68 39 -23 39 C-21.51171875 40.80859375 -21.51171875 40.80859375 -19.6875 43.4375 C-15.37416492 49.54473599 -10.8309236 55.45220968 -6.2175293 61.33569336 C-5.67136963 62.04089111 -5.12520996 62.74608887 -4.5625 63.47265625 C-4.06878906 64.10437744 -3.57507813 64.73609863 -3.06640625 65.38696289 C-2 67 -2 67 -2 69 C-1.34 69 -0.68 69 0 69 C0.66 70.65 1.32 72.3 2 74 C-0.04128347 76.04128347 -3.96352323 75.32103654 -6.75 75.375 C-7.82507813 75.43107422 -7.82507813 75.43107422 -8.921875 75.48828125 C-12.66502439 75.55020835 -14.65256329 75.26737744 -17.64453125 72.96484375 C-20.46780202 69.41117457 -23.25013438 65.84520762 -25.9375 62.1875 C-26.43701172 61.51396484 -26.93652344 60.84042969 -27.45117188 60.14648438 C-28.45698344 58.79026105 -29.46009786 57.43203312 -30.46044922 56.07177734 C-31.53201912 54.62976305 -32.61814811 53.19850139 -33.71533203 51.77587891 C-34.26431152 51.06222168 -34.81329102 50.34856445 -35.37890625 49.61328125 C-36.13216187 48.64515503 -36.13216187 48.64515503 -36.90063477 47.6574707 C-38 46 -38 46 -38 44 C-38.99 44 -39.98 44 -41 44 C-41.33 44.99 -41.66 45.98 -42 47 C-42.66 47 -43.32 47 -44 47 C-44 47.66 -44 48.32 -44 49 C-44.66 49 -45.32 49 -46 49 C-46 49.66 -46 50.32 -46 51 C-46.99 51.495 -46.99 51.495 -48 52 C-48.02505615 52.6612085 -48.0501123 53.32241699 -48.07592773 54.00366211 C-48.19153102 56.98182305 -48.31441754 59.9596392 -48.4375 62.9375 C-48.47681641 63.97841797 -48.51613281 65.01933594 -48.55664062 66.09179688 C-48.59853516 67.08115234 -48.64042969 68.07050781 -48.68359375 69.08984375 C-48.72025146 70.00628662 -48.75690918 70.92272949 -48.79467773 71.86694336 C-49 74 -49 74 -50 75 C-52.33160055 75.09909302 -54.66629942 75.12970504 -57 75.125 C-58.27875 75.12757812 -59.5575 75.13015625 -60.875 75.1328125 C-64 75 -64 75 -65 74 C-65.09439978 71.73008113 -65.11742226 69.45718033 -65.11352539 67.18530273 C-65.11367142 66.47314606 -65.11381744 65.76098938 -65.1139679 65.0272522 C-65.1132687 62.66266888 -65.10547606 60.29816339 -65.09765625 57.93359375 C-65.09579209 56.29834537 -65.09436818 54.66309643 -65.09336853 53.02784729 C-65.08954318 48.71565215 -65.07971275 44.40349048 -65.06866455 40.09130859 C-65.0584508 35.69434054 -65.05387099 31.29736711 -65.04882812 26.90039062 C-65.03809049 18.26690998 -65.02049356 9.63346301 -65 1 C-59.72 1 -54.44 1 -49 1 C-48.505 16.345 -48.505 16.345 -48 32 C-44.92006075 31.351257 -44.92006075 31.351257 -43.98828125 29.15234375 C-43.66214844 28.44207031 -43.33601563 27.73179688 -43 27 C-42.10204732 25.82291833 -41.16258931 24.67652025 -40.1875 23.5625 C-39.70667969 23.00691406 -39.22585938 22.45132813 -38.73046875 21.87890625 C-37.4242232 20.46061255 -36.07193035 19.08453571 -34.69921875 17.73046875 C-32.68432386 15.69224657 -30.83088345 13.65887906 -28.9765625 11.484375 C-19.19079587 0.3837968 -19.19079587 0.3837968 -11.80810547 -0.33105469 C-7.85370957 -0.41813461 -3.94785885 0 0 0 Z " fill="#004279" transform="translate(349,13)"/>
<path d="M0 0 C-0.45699278 5.02692063 -2.99241748 8.14896261 -6 12 C-9.51853841 11.4094326 -12.40025249 10.44202267 -15.625 8.9375 C-21.92117887 6.33218461 -28.49312882 5.83104294 -35 8 C-35.76522801 11.35458155 -35.76522801 11.35458155 -36 15 C-33.90547643 17.88947475 -31.61905068 18.6469971 -28.25 19.5625 C-27.35539062 19.81515625 -26.46078125 20.0678125 -25.5390625 20.328125 C-23.57419019 20.84806044 -21.60104449 21.33678558 -19.625 21.8125 C-11.44929216 24.49074912 -3.83787752 27.65977204 1 35 C3.45542259 39.91084517 2.644455 47.59713369 2 53 C-0.4503862 60.28778655 -5.83085427 63.38661672 -12.4375 66.75 C-23.6958443 70.61000376 -35.60461637 68.04169866 -46 63 C-49.50477908 60.86089146 -52.79389032 58.56341028 -56 56 C-54.5 53 -54.5 53 -53 50 C-52.34 50 -51.68 50 -51 50 C-50.731875 49.38125 -50.46375 48.7625 -50.1875 48.125 C-49 46 -49 46 -46 44 C-45.40832031 44.40992188 -44.81664062 44.81984375 -44.20703125 45.2421875 C-43.41683594 45.78101563 -42.62664062 46.31984375 -41.8125 46.875 C-41.03519531 47.40867188 -40.25789063 47.94234375 -39.45703125 48.4921875 C-34.49034047 51.54010903 -30.77924343 52.25622639 -24.9375 52.1875 C-23.72964844 52.18105469 -22.52179688 52.17460938 -21.27734375 52.16796875 C-18.64941939 52.03328371 -16.49351521 51.7772803 -14 51 C-13.38160232 45.6982803 -13.38160232 45.6982803 -15.5 41.1875 C-20.06164875 39.02071685 -24.25779788 37.2013394 -29.3125 36.6171875 C-33.33550993 35.94384474 -36.59632885 34.59062207 -40.1875 32.75 C-41.09145508 32.31880859 -41.09145508 32.31880859 -42.01367188 31.87890625 C-47.28122797 29.23067278 -50.90448379 25.54570958 -53 20 C-53.9509113 12.26002429 -53.07294188 6.61853056 -49 0 C-48.34 0 -47.68 0 -47 0 C-46.67 -0.99 -46.34 -1.98 -46 -3 C-31.95942085 -12.65289816 -13.24118101 -10.02035319 0 0 Z " fill="#004078" transform="translate(475,21)"/>
<path d="M0 0 C1.45986328 0.14501953 1.45986328 0.14501953 2.94921875 0.29296875 C3.72910156 0.46441406 4.50898438 0.63585937 5.3125 0.8125 C5.6425 1.4725 5.9725 2.1325 6.3125 2.8125 C6.9725 2.1525 7.6325 1.4925 8.3125 0.8125 C10.4375 1.1875 10.4375 1.1875 12.3125 1.8125 C12.3125 2.8025 12.3125 3.7925 12.3125 4.8125 C12.9725 4.8125 13.6325 4.8125 14.3125 4.8125 C14.3125 3.4925 14.3125 2.1725 14.3125 0.8125 C15.87382309 0.6154398 17.43665264 0.43029845 19 0.25 C19.87011719 0.14558594 20.74023438 0.04117188 21.63671875 -0.06640625 C24.3125 -0.1875 24.3125 -0.1875 29.3125 0.8125 C29.3125 4.4425 29.3125 8.0725 29.3125 11.8125 C22.05096154 13.28942308 22.05096154 13.28942308 18.3125 10.875 C17.6525 10.194375 16.9925 9.51375 16.3125 8.8125 C15.9825 9.8025 15.6525 10.7925 15.3125 11.8125 C13.9925 11.8125 12.6725 11.8125 11.3125 11.8125 C10.6525 11.1525 9.9925 10.4925 9.3125 9.8125 C8.9825 10.4725 8.6525 11.1325 8.3125 11.8125 C6.375 11.4375 6.375 11.4375 4.3125 10.8125 C3.9825 10.1525 3.6525 9.4925 3.3125 8.8125 C2.9825 9.8025 2.6525 10.7925 2.3125 11.8125 C-4.96022727 13.26704545 -4.96022727 13.26704545 -8.1875 11.25 C-10.10565219 8.13300269 -10.2999175 6.41045281 -9.6875 2.8125 C-6.5431339 -0.36851372 -4.34113605 -0.49265229 0 0 Z M-5.6875 3.8125 C-6.0175 4.8025 -6.3475 5.7925 -6.6875 6.8125 C-6.3575 7.4725 -6.0275 8.1325 -5.6875 8.8125 C-4.3675 8.4825 -3.0475 8.1525 -1.6875 7.8125 C-1.6875 6.4925 -1.6875 5.1725 -1.6875 3.8125 C-3.0075 3.8125 -4.3275 3.8125 -5.6875 3.8125 Z M22.3125 3.8125 C21.3225 5.2975 21.3225 5.2975 20.3125 6.8125 C20.9725 7.4725 21.6325 8.1325 22.3125 8.8125 C24.42070797 8.4939823 24.42070797 8.4939823 26.3125 7.8125 C25.9825 6.4925 25.6525 5.1725 25.3125 3.8125 C24.3225 3.8125 23.3325 3.8125 22.3125 3.8125 Z " fill="#004179" transform="translate(13.6875,104.1875)"/>
<path d="M0 0 C0.99 0 1.98 0 3 0 C3 0.99 3 1.98 3 3 C3.59167969 2.91621094 4.18335938 2.83242187 4.79296875 2.74609375 C5.58316406 2.64425781 6.37335938 2.54242188 7.1875 2.4375 C8.35345703 2.28087891 8.35345703 2.28087891 9.54296875 2.12109375 C12 2 12 2 17 3 C17 6.63 17 10.26 17 14 C15.741875 14.185625 14.48375 14.37125 13.1875 14.5625 C12.12595703 14.71912109 12.12595703 14.71912109 11.04296875 14.87890625 C9 15 9 15 6 14 C5.13375 14 4.2675 14 3.375 14 C2.59125 14 1.8075 14 1 14 C0 13 0 13 -0.0625 9.4375 C-0.041875 8.303125 -0.02125 7.16875 0 6 C-0.66 6 -1.32 6 -2 6 C-2 8.64 -2 11.28 -2 14 C-9.27272727 15.45454545 -9.27272727 15.45454545 -12.5 13.4375 C-14.41815219 10.32050269 -14.6124175 8.59795281 -14 5 C-11.76937224 2.76937224 -10.60602942 2.0174463 -7.421875 1.92578125 C-6.09929687 2.11720703 -6.09929687 2.11720703 -4.75 2.3125 C-3.41195312 2.49232422 -3.41195312 2.49232422 -2.046875 2.67578125 C-1.37140625 2.78277344 -0.6959375 2.88976562 0 3 C0 2.01 0 1.02 0 0 Z M-10 6 C-10.33 6.99 -10.66 7.98 -11 9 C-10.67 9.66 -10.34 10.32 -10 11 C-8.35 10.67 -6.7 10.34 -5 10 C-5.33 8.68 -5.66 7.36 -6 6 C-7.32 6 -8.64 6 -10 6 Z M3 6 C3 7.65 3 9.3 3 11 C3.66 11 4.32 11 5 11 C5 9.35 5 7.7 5 6 C4.34 6 3.68 6 3 6 Z M10 6 C9.01 7.485 9.01 7.485 8 9 C8.66 9.66 9.32 10.32 10 11 C12.10820797 10.6814823 12.10820797 10.6814823 14 10 C13.67 8.68 13.34 7.36 13 6 C12.01 6 11.02 6 10 6 Z " fill="#004179" transform="translate(181,102)"/>
<path d="M0 0 C0.99 0 1.98 0 3 0 C3 4.95 3 9.9 3 15 C1.68 14.67 0.36 14.34 -1 14 C-1.99 14.495 -1.99 14.495 -3 15 C-5 16 -5 16 -7.0625 15.6875 C-7.701875 15.460625 -8.34125 15.23375 -9 15 C-9.99 14.67 -10.98 14.34 -12 14 C-12.99 14.66 -13.98 15.32 -15 16 C-17.5625 15.875 -17.5625 15.875 -20 15 C-22.10976281 11.88558823 -22.19517646 10.02467642 -21.5 6.375 C-21.335 5.59125 -21.17 4.8075 -21 4 C-17.71303767 3.20046862 -16.28976808 2.90341064 -13 4 C-13 4.66 -13 5.32 -13 6 C-12.29875 5.484375 -11.5975 4.96875 -10.875 4.4375 C-7.37479865 2.68739933 -5.71328312 2.98728642 -2 4 C-1.67 4.33 -1.34 4.66 -1 5 C-0.67 3.35 -0.34 1.7 0 0 Z M-8 7 C-8.33 7.99 -8.66 8.98 -9 10 C-8.67 10.66 -8.34 11.32 -8 12 C-6.68 11.67 -5.36 11.34 -4 11 C-4 9.68 -4 8.36 -4 7 C-5.32 7 -6.64 7 -8 7 Z M-14 8 C-13.34 8.66 -12.68 9.32 -12 10 C-12 9.34 -12 8.68 -12 8 C-12.66 8 -13.32 8 -14 8 Z M-18 11 C-17.34 11.66 -16.68 12.32 -16 13 C-16 12.34 -16 11.68 -16 11 C-16.66 11 -17.32 11 -18 11 Z " fill="#003E76" transform="translate(421,101)"/>
<path d="M0 0 C3.06005733 1.2605754 3.06005733 1.2605754 6.0625 -0.0625 C9.79775189 -1.30758396 11.51653514 -0.58219923 15.0625 0.9375 C15.8125 4.1875 15.8125 4.1875 16.0625 7.9375 C14.4375 10.4375 14.4375 10.4375 12.0625 11.9375 C9.3125 11.6875 9.3125 11.6875 7.0625 10.9375 C7.0625 12.2575 7.0625 13.5775 7.0625 14.9375 C6.0725 14.9375 5.0825 14.9375 4.0625 14.9375 C3.7325 13.2875 3.4025 11.6375 3.0625 9.9375 C2.0725 10.5975 1.0825 11.2575 0.0625 11.9375 C-2.625 11.5625 -2.625 11.5625 -4.9375 10.9375 C-4.9375 12.2575 -4.9375 13.5775 -4.9375 14.9375 C-5.9275 14.9375 -6.9175 14.9375 -7.9375 14.9375 C-7.9375 9.9875 -7.9375 5.0375 -7.9375 -0.0625 C-2.9375 -1.0625 -2.9375 -1.0625 0 0 Z M-3.9375 2.9375 C-4.2675 3.9275 -4.5975 4.9175 -4.9375 5.9375 C-4.6075 6.5975 -4.2775 7.2575 -3.9375 7.9375 C-2.6175 7.6075 -1.2975 7.2775 0.0625 6.9375 C0.0625 5.6175 0.0625 4.2975 0.0625 2.9375 C-1.2575 2.9375 -2.5775 2.9375 -3.9375 2.9375 Z M8.0625 2.9375 C7.7325 3.9275 7.4025 4.9175 7.0625 5.9375 C7.3925 6.5975 7.7225 7.2575 8.0625 7.9375 C9.3825 7.9375 10.7025 7.9375 12.0625 7.9375 C12.0625 6.2875 12.0625 4.6375 12.0625 2.9375 C10.7425 2.9375 9.4225 2.9375 8.0625 2.9375 Z " fill="#004079" transform="translate(305.9375,105.0625)"/>
<path d="M0 0 C0.99 0 1.98 0 3 0 C3 1.32 3 2.64 3 4 C3.556875 3.79375 4.11375 3.5875 4.6875 3.375 C7 3 7 3 9.5625 4.0625 C10.366875 4.371875 11.17125 4.68125 12 5 C12.99 4.34 13.98 3.68 15 3 C17.73990408 3.03143293 20.28417854 3.55478337 23 4 C23 7.63 23 11.26 23 15 C15.375 16.25 15.375 16.25 12 14 C9.84725052 14.30840599 9.84725052 14.30840599 8 15 C7.67 12.36 7.34 9.72 7 7 C6.01 7.33 5.02 7.66 4 8 C3.67 10.31 3.34 12.62 3 15 C2.01 15 1.02 15 0 15 C0 10.05 0 5.1 0 0 Z M15 7 C14.67 8.32 14.34 9.64 14 11 C15.32 11.33 16.64 11.66 18 12 C18.33 10.35 18.66 8.7 19 7 C17.68 7 16.36 7 15 7 Z " fill="#004179" transform="translate(354,101)"/>
<path d="M0 0 C0 -0.66 0 -1.32 0 -2 C3.28696233 -2.79953138 4.71023192 -3.09658936 8 -2 C8.05395478 -0.37536158 8.09277195 1.24978541 8.125 2.875 C8.14820313 3.77992187 8.17140625 4.68484375 8.1953125 5.6171875 C8 8 8 8 6 10 C3.6171875 9.9765625 3.6171875 9.9765625 0.875 9.625 C-0.03507812 9.51414062 -0.94515625 9.40328125 -1.8828125 9.2890625 C-2.58148438 9.19367188 -3.28015625 9.09828125 -4 9 C-4.33 6.36 -4.66 3.72 -5 1 C-5.99 1 -6.98 1 -8 1 C-8.33 3.64 -8.66 6.28 -9 9 C-9.99 9 -10.98 9 -12 9 C-12 5.37 -12 1.74 -12 -2 C-6.22964211 -3.15407158 -4.74511036 -3.16340691 0 0 Z M-1 3 C-1 3.66 -1 4.32 -1 5 C-0.34 4.67 0.32 4.34 1 4 C0.34 3.67 -0.32 3.34 -1 3 Z " fill="#003F78" transform="translate(473,107)"/>
<path d="M0 0 C1.32 0 2.64 0 4 0 C4 4.95 4 9.9 4 15 C-3.29411765 16.45882353 -3.29411765 16.45882353 -6.5 14.375 C-8.22397867 11.64536711 -8.35204687 10.16842183 -8 7 C-8.99 7 -9.98 7 -11 7 C-11 9.64 -11 12.28 -11 15 C-11.99 15 -12.98 15 -14 15 C-14 11.37 -14 7.74 -14 4 C-12.02 3.67 -10.04 3.34 -8 3 C-7.67 3.66 -7.34 4.32 -7 5 C-6.01 4.34 -5.02 3.68 -4 3 C-3.01 3 -2.02 3 -1 3 C-0.67 2.01 -0.34 1.02 0 0 Z M-4 7 C-4.33 7.99 -4.66 8.98 -5 10 C-4.67 10.66 -4.34 11.32 -4 12 C-2.68 12 -1.36 12 0 12 C0 10.35 0 8.7 0 7 C-1.32 7 -2.64 7 -4 7 Z " fill="#00417A" transform="translate(59,101)"/>
<path d="M0 0 C1.32 0 2.64 0 4 0 C3.67 4.95 3.34 9.9 3 15 C2.01 15 1.02 15 0 15 C-0.33 13.35 -0.66 11.7 -1 10 C-1.66 11.65 -2.32 13.3 -3 15 C-4.32 15 -5.64 15 -7 15 C-7 13.68 -7 12.36 -7 11 C-7.66 11 -8.32 11 -9 11 C-9.33 12.32 -9.66 13.64 -10 15 C-11.875 14.875 -11.875 14.875 -14 14 C-15.59844485 10.40349908 -16 7.96602757 -16 4 C-15.01 4 -14.02 4 -13 4 C-12.34 4.66 -11.68 5.32 -11 6 C-10.67 5.34 -10.34 4.68 -10 4 C-8.68 4 -7.36 4 -6 4 C-6 5.32 -6 6.64 -6 8 C-5.34 8 -4.68 8 -4 8 C-3.896875 7.360625 -3.79375 6.72125 -3.6875 6.0625 C-3.460625 5.381875 -3.23375 4.70125 -3 4 C-2.01 3.67 -1.02 3.34 0 3 C0 2.01 0 1.02 0 0 Z " fill="#00417A" transform="translate(84,101)"/>
<path d="M0 0 C0.99 0 1.98 0 3 0 C3 0.99 3 1.98 3 3 C3.99 3 4.98 3 6 3 C6 3.99 6 4.98 6 6 C5.01 6 4.02 6 3 6 C3 7.65 3 9.3 3 11 C3.99 11 4.98 11 6 11 C6 11.99 6 12.98 6 14 C3.66666667 14 1.33333333 14 -1 14 C-3.01035966 14.35101518 -5.02063789 14.70288439 -7.02734375 15.07421875 C-9 15 -9 15 -10.7421875 13.8125 C-12.35494731 11.48852313 -12.30927301 10.11327913 -12.1875 7.3125 C-12.16042969 6.50425781 -12.13335937 5.69601563 -12.10546875 4.86328125 C-12.07066406 4.24839844 -12.03585937 3.63351563 -12 3 C-11.01 3 -10.02 3 -9 3 C-8.67 5.31 -8.34 7.62 -8 10 C-7.01 10.33 -6.02 10.66 -5 11 C-5 8.36 -5 5.72 -5 3 C-3.35 3 -1.7 3 0 3 C0 2.01 0 1.02 0 0 Z " fill="#00427B" transform="translate(438,102)"/>
<path d="M0 0 C0.02685412 2.31243792 0.04632841 4.6249627 0.0625 6.9375 C0.07410156 8.22527344 0.08570313 9.51304688 0.09765625 10.83984375 C0 14 0 14 -1 15 C-2.51928038 15.07179964 -4.04167482 15.08392007 -5.5625 15.0625 C-6.38878906 15.05347656 -7.21507812 15.04445313 -8.06640625 15.03515625 C-9.02353516 15.01775391 -9.02353516 15.01775391 -10 15 C-11.41494556 10.57829513 -12.63944399 6.68925593 -12 2 C-8.69364842 -2.27070413 -4.7572686 -0.87216591 0 0 Z M-8 3 C-8.33 3.99 -8.66 4.98 -9 6 C-8.34 6.66 -7.68 7.32 -7 8 C-4.89179203 7.6814823 -4.89179203 7.6814823 -3 7 C-3.33 5.68 -3.66 4.36 -4 3 C-5.32 3 -6.64 3 -8 3 Z " fill="#004176" transform="translate(140,105)"/>
<path d="M0 0 C0.99 0 1.98 0 3 0 C3 1.32 3 2.64 3 4 C4.32 4 5.64 4 7 4 C7.66 5.32 8.32 6.64 9 8 C9.66 6.68 10.32 5.36 11 4 C11.99 4 12.98 4 14 4 C13.37321829 7.66172475 12.35548154 10.8818995 10.9375 14.3125 C10.57527344 15.19550781 10.21304687 16.07851562 9.83984375 16.98828125 C9.56269531 17.65214844 9.28554688 18.31601563 9 19 C8.01 19 7.02 19 6 19 C5.65820312 15.97265625 5.65820312 15.97265625 5.31640625 12.9453125 C5.08707039 10.92595684 5.08707039 10.92595684 4 9 C3.67 10.98 3.34 12.96 3 15 C2.01 15 1.02 15 0 15 C0 10.05 0 5.1 0 0 Z " fill="#00407A" transform="translate(323,101)"/>
<path d="M0 0 C0.99 0 1.98 0 3 0 C3 4.95 3 9.9 3 15 C-4.23602484 16.44720497 -4.23602484 16.44720497 -7.5625 14.5 C-9 12 -9 12 -8.9375 8.375 C-8 5 -8 5 -5 3 C-2.3125 3.375 -2.3125 3.375 0 4 C0 2.68 0 1.36 0 0 Z M-4 7 C-4.99 8.485 -4.99 8.485 -6 10 C-5.34 10.66 -4.68 11.32 -4 12 C-1.89179203 11.6814823 -1.89179203 11.6814823 0 11 C-0.33 9.68 -0.66 8.36 -1 7 C-1.99 7 -2.98 7 -4 7 Z " fill="#003E76" transform="translate(163,101)"/>
<path d="M0 0 C2.0625 0.4375 2.0625 0.4375 4 1 C4 1.66 4 2.32 4 3 C4.99 3.33 5.98 3.66 7 4 C8.1875 6.5625 8.1875 6.5625 9 9 C9.66 7.35 10.32 5.7 11 4 C11.99 4 12.98 4 14 4 C13.44894091 7.9492568 12.61064629 11.34920174 11 15 C8.625 14.8125 8.625 14.8125 6 14 C4.6875 11.4375 4.6875 11.4375 4 9 C3.67 10.98 3.34 12.96 3 15 C2.01 15 1.02 15 0 15 C-0.19390729 12.68802845 -0.37996367 10.3753971 -0.5625 8.0625 C-0.71912109 6.13083984 -0.71912109 6.13083984 -0.87890625 4.16015625 C-0.91886719 3.11730469 -0.95882812 2.07445313 -1 1 C-0.67 0.67 -0.34 0.34 0 0 Z " fill="#004077" transform="translate(224,101)"/>
<path d="M0 0 C0.99 0 1.98 0 3 0 C3 4.95 3 9.9 3 15 C-4.27272727 16.45454545 -4.27272727 16.45454545 -7.5 14.4375 C-9.41815219 11.32050269 -9.6124175 9.59795281 -9 6 C-7.3125 4.0625 -7.3125 4.0625 -5 3 C-2.25 3.3125 -2.25 3.3125 0 4 C0 2.68 0 1.36 0 0 Z M-5 7 C-5.33 7.99 -5.66 8.98 -6 10 C-5.67 10.66 -5.34 11.32 -5 12 C-3.35 11.67 -1.7 11.34 0 11 C-0.33 9.68 -0.66 8.36 -1 7 C-2.32 7 -3.64 7 -5 7 Z " fill="#00427B" transform="translate(213,101)"/>
<path d="M0 0 C2 2 2 2 2.375 4.875 C2 8 2 8 0.3125 10.4375 C-2 12 -2 12 -4.625 11.8125 C-7 11 -7 11 -9 10 C-9 7.03 -9 4.06 -9 1 C-4.84592218 -1.07703891 -4.1645833 -1.31513157 0 0 Z M-6 3 C-2 4 -2 4 -2 4 Z " fill="#003E79" transform="translate(248,105)"/>
<path d="M0 0 C1 1 1 1 1.3125 4.375 C1 8 1 8 -0.6875 10 C-3.59380843 11.25678203 -5.01847768 10.94153336 -8 10 C-8.66 9.67 -9.32 9.34 -10 9 C-10.125 1.25 -10.125 1.25 -9 -1 C-5.21801096 -2.26066301 -3.63636792 -1.42292658 0 0 Z M-7 2 C-7.33 2.99 -7.66 3.98 -8 5 C-7.34 5.66 -6.68 6.32 -6 7 C-3.89179203 6.6814823 -3.89179203 6.6814823 -2 6 C-2.33 4.68 -2.66 3.36 -3 2 C-4.32 2 -5.64 2 -7 2 Z " fill="#004078" transform="translate(459,106)"/>
<path d="M0 0 C0.763125 0.20625 1.52625 0.4125 2.3125 0.625 C3.40572542 4.72459531 3.18755695 7.46847947 2.3125 11.625 C0 12.25 0 12.25 -2.6875 12.625 C-3.6775 11.965 -4.6675 11.305 -5.6875 10.625 C-6.0859375 8.53125 -6.0859375 8.53125 -6.0625 6.125 C-6.07023437 5.3309375 -6.07796875 4.536875 -6.0859375 3.71875 C-5.95445312 3.0278125 -5.82296875 2.336875 -5.6875 1.625 C-2.6875 -0.375 -2.6875 -0.375 0 0 Z M-2.6875 7.625 C-2.0275 8.285 -1.3675 8.945 -0.6875 9.625 C-0.6875 8.965 -0.6875 8.305 -0.6875 7.625 C-1.3475 7.625 -2.0075 7.625 -2.6875 7.625 Z " fill="#00427A" transform="translate(281.6875,104.375)"/>
<path d="M0 0 C0.33 1.65 0.66 3.3 1 5 C0.01 5 -0.98 5 -2 5 C-2 4.34 -2 3.68 -2 3 C-3.32 3 -4.64 3 -6 3 C-5.67 4.65 -5.34 6.3 -5 8 C-3.02 7.67 -1.04 7.34 1 7 C1 7.99 1 8.98 1 10 C-1.4404341 11.53656962 -2.70744102 12.02089707 -5.625 11.8125 C-8 11 -8 11 -10 8 C-10.375 5 -10.375 5 -10 2 C-6.92702006 -1.66393762 -4.38919352 -1.09729838 0 0 Z " fill="#003E7B" transform="translate(352,105)"/>
<path d="M0 0 C1 1 1 1 1.09765625 3.28515625 C1.08605469 4.20167969 1.07445312 5.11820312 1.0625 6.0625 C1.05347656 6.98160156 1.04445313 7.90070313 1.03515625 8.84765625 C1.02355469 9.55792969 1.01195312 10.26820312 1 11 C0.01 11 -0.98 11 -2 11 C-2 8.36 -2 5.72 -2 3 C-3.32 3 -4.64 3 -6 3 C-6 5.64 -6 8.28 -6 11 C-6.99 11 -7.98 11 -9 11 C-9 7.37 -9 3.74 -9 0 C-5.16046631 -0.95988342 -3.67125527 -0.99223115 0 0 Z " fill="#00417A" transform="translate(392,105)"/>
<path d="M0 0 C0.99 0 1.98 0 3 0 C3 2.64 3 5.28 3 8 C3.99 7.67 4.98 7.34 6 7 C6.33 4.69 6.66 2.38 7 0 C7.99 0 8.98 0 10 0 C10 3.63 10 7.26 10 11 C6.6875 11.6875 6.6875 11.6875 3 12 C1.28125 10.8125 1.28125 10.8125 0 9 C-0.29296875 6.73828125 -0.29296875 6.73828125 -0.1875 4.3125 C-0.16042969 3.50425781 -0.13335937 2.69601563 -0.10546875 1.86328125 C-0.07066406 1.24839844 -0.03585937 0.63351563 0 0 Z " fill="#004179" transform="translate(286,105)"/>
<path d="M0 0 C1 1 1 1 1.09765625 3.28515625 C1.08605469 4.20167969 1.07445312 5.11820312 1.0625 6.0625 C1.05347656 6.98160156 1.04445313 7.90070313 1.03515625 8.84765625 C1.02355469 9.55792969 1.01195312 10.26820312 1 11 C0.01 11 -0.98 11 -2 11 C-2 8.36 -2 5.72 -2 3 C-3.32 3 -4.64 3 -6 3 C-6 5.64 -6 8.28 -6 11 C-6.99 11 -7.98 11 -9 11 C-9 7.37 -9 3.74 -9 0 C-5.16046631 -0.95988342 -3.67125527 -0.99223115 0 0 Z " fill="#00427B" transform="translate(260,105)"/>
<path d="M0 0 C1 1 1 1 1.09765625 3.28515625 C1.08605469 4.20167969 1.07445313 5.11820312 1.0625 6.0625 C1.05347656 6.98160156 1.04445313 7.90070313 1.03515625 8.84765625 C1.02355469 9.55792969 1.01195313 10.26820312 1 11 C0.01 11 -0.98 11 -2 11 C-2 8.36 -2 5.72 -2 3 C-3.32 3 -4.64 3 -6 3 C-6 5.64 -6 8.28 -6 11 C-6.99 11 -7.98 11 -9 11 C-9 7.37 -9 3.74 -9 0 C-5.16046631 -0.95988342 -3.67125527 -0.99223115 0 0 Z " fill="#00427B" transform="translate(98,105)"/>
<path d="M0 0 C1 1 1 1 1.09765625 3.28515625 C1.08605469 4.20167969 1.07445313 5.11820312 1.0625 6.0625 C1.05347656 6.98160156 1.04445313 7.90070313 1.03515625 8.84765625 C1.02355469 9.55792969 1.01195313 10.26820312 1 11 C0.34 11 -0.32 11 -1 11 C-1.33 8.36 -1.66 5.72 -2 3 C-3.32 3 -4.64 3 -6 3 C-6 5.64 -6 8.28 -6 11 C-6.99 11 -7.98 11 -9 11 C-9 7.37 -9 3.74 -9 0 C-5.16046631 -0.95988342 -3.67125527 -0.99223115 0 0 Z " fill="#004179" transform="translate(126,105)"/>
<path d="M0 0 C1 1 1 1 1.09765625 3.28515625 C1.08605469 4.20167969 1.07445313 5.11820312 1.0625 6.0625 C1.05347656 6.98160156 1.04445313 7.90070313 1.03515625 8.84765625 C1.02355469 9.55792969 1.01195313 10.26820312 1 11 C0.34 11 -0.32 11 -1 11 C-1.33 8.36 -1.66 5.72 -2 3 C-3.32 3 -4.64 3 -6 3 C-6 5.64 -6 8.28 -6 11 C-6.99 11 -7.98 11 -9 11 C-9 7.37 -9 3.74 -9 0 C-5.16046631 -0.95988342 -3.67125527 -0.99223115 0 0 Z " fill="#004279" transform="translate(110,105)"/>
<path d="M0 0 C1.32 0 2.64 0 4 0 C3.67 4.95 3.34 9.9 3 15 C2.01 15 1.02 15 0 15 C0 10.05 0 5.1 0 0 Z " fill="#00437B" transform="translate(378,101)"/>
<path d="M0 0 C1.32 0 2.64 0 4 0 C3.67 4.95 3.34 9.9 3 15 C2.01 15 1.02 15 0 15 C0 10.05 0 5.1 0 0 Z " fill="#00427B" transform="translate(112,101)"/>
<path d="M0 0 C0.99 0 1.98 0 3 0 C3 4.95 3 9.9 3 15 C2.01 15 1.02 15 0 15 C-0.19390729 12.68802845 -0.37996367 10.3753971 -0.5625 8.0625 C-0.71912109 6.13083984 -0.71912109 6.13083984 -0.87890625 4.16015625 C-0.91886719 3.11730469 -0.95882813 2.07445313 -1 1 C-0.67 0.67 -0.34 0.34 0 0 Z " fill="#00407C" transform="translate(445,101)"/>
<path d="M0 0 C0 1.32 0 2.64 0 4 C-0.99 4.495 -0.99 4.495 -2 5 C-2.40729228 7.32156597 -2.74438677 9.6568787 -3 12 C-3.99 12 -4.98 12 -6 12 C-6 8.37 -6 4.74 -6 1 C-2 0 -2 0 0 0 Z " fill="#004076" transform="translate(223,104)"/>
<path d="M0 0 C0.99 0.33 1.98 0.66 3 1 C2.67 2.32 2.34 3.64 2 5 C1.01 4.67 0.02 4.34 -1 4 C-0.67 2.68 -0.34 1.36 0 0 Z " fill="#00318B" transform="translate(147,112)"/>
<path d="M0 0 C0.66 0.33 1.32 0.66 2 1 C1.67 2.32 1.34 3.64 1 5 C0.34 4.67 -0.32 4.34 -1 4 C-0.67 2.68 -0.34 1.36 0 0 Z " fill="#003D77" transform="translate(268,112)"/>
</svg>
