<?xml version="1.0" encoding="UTF-8"?>
<svg version="1.1" xmlns="http://www.w3.org/2000/svg" width="1920" height="2073">
<path d="M0 0 C0 111.21 0 222.42 0 337 C-8.68387452 335.7594465 -17.21166061 334.47438506 -25.7890625 332.75 C-26.87073196 332.53587967 -27.95240143 332.32175934 -29.06684875 332.10115051 C-31.3833263 331.6422907 -33.69948713 331.18182952 -36.01535034 330.71987915 C-42.25218442 329.47605572 -48.49147418 328.24465092 -54.73046875 327.01171875 C-56.00549759 326.75944016 -57.28052643 326.50716156 -58.5941925 326.24723816 C-71.36650793 323.72300577 -84.15069195 321.26207686 -96.9375 318.8125 C-101.21360983 317.9925426 -105.48964101 317.17217588 -109.765625 316.3515625 C-110.79551041 316.15392807 -111.82539581 315.95629364 -112.88648987 315.75267029 C-133.87603303 311.72187032 -154.85843598 307.64918858 -175.8125 303.4375 C-190.7943327 300.426257 -205.79807699 297.52815593 -220.80023193 294.62030029 C-230.71868288 292.6975303 -240.63683615 290.77322443 -250.55502796 288.84911823 C-254.24724752 288.13284357 -257.93948107 287.41664112 -261.63174438 286.70059204 C-279.57822233 283.22016604 -297.52255363 279.72914831 -315.46298218 276.21765137 C-329.20433259 273.52957527 -342.95787958 270.90772059 -356.71420288 268.29748535 C-367.73880156 266.20475356 -378.75446979 264.07785812 -389.75390625 261.85595703 C-398.49473562 260.09232841 -407.24632165 258.38589791 -416 256.6875 C-416.74916687 256.54209778 -417.49833374 256.39669556 -418.27020264 256.24688721 C-421.37913906 255.64349472 -424.48809157 255.04018522 -427.59707642 254.43704224 C-436.35238682 252.73825726 -445.10660392 251.03387519 -453.86035156 249.32705688 C-455.5823178 248.99138734 -457.30432128 248.6559088 -459.02636719 248.32064819 C-468.67674466 246.44181047 -478.32211204 244.54016801 -487.96177673 242.6071167 C-498.62022809 240.47171657 -509.28553605 238.37112696 -519.95141602 236.27319336 C-522.34640099 235.80183907 -524.74125927 235.32984061 -527.13598633 234.85717773 C-541.3411384 232.05354211 -555.55424147 229.30813959 -569.79737854 226.70350647 C-576.85801456 225.41022728 -583.90127211 224.04500139 -590.9375 222.625 C-592.06430176 222.398125 -593.19110352 222.17125 -594.35205078 221.9375 C-595.26970215 221.751875 -596.18735352 221.56625 -597.1328125 221.375 C-605.18565578 219.75538053 -613.2488323 218.18963869 -621.3125 216.625 C-622.07201965 216.47759369 -622.83153931 216.33018738 -623.61407471 216.17831421 C-626.72439049 215.5747497 -629.83474272 214.97137363 -632.94515991 214.36833191 C-638.3700755 213.31654248 -643.7945615 212.26256366 -649.21875 211.20703125 C-649.97195526 211.06046585 -650.72516052 210.91390045 -651.50119019 210.76289368 C-653.01591027 210.46814189 -654.53062991 210.17338787 -656.04534912 209.87863159 C-667.75806051 207.59962711 -679.4719941 205.32709916 -691.1875 203.0625 C-704.94699617 200.4023188 -718.7019997 197.71934651 -732.45654297 195.03369141 C-743.74098316 192.83042845 -755.02620931 190.63126423 -766.3125 188.4375 C-767.04734619 188.29465576 -767.78219238 188.15181152 -768.53930664 188.00463867 C-773.69283256 187.00289414 -778.84640932 186.00141133 -784 185 C-818.17188855 178.3599468 -852.34007904 171.70138108 -886.5 165 C-901.3967165 162.07767496 -916.2937892 159.15723036 -931.19332886 156.24932861 C-933.71245422 155.75733285 -936.23136674 155.2642596 -938.75024414 154.77099609 C-946.61350596 153.23292701 -954.47996694 151.71637497 -962.35546875 150.2421875 C-964.52950374 149.83235697 -966.70343056 149.42195786 -968.87731934 149.01135254 C-970.88105899 148.63558457 -972.8862303 148.26830961 -974.89160156 147.90136719 C-976.66035645 147.56733887 -976.66035645 147.56733887 -978.46484375 147.2265625 C-980.00579712 146.94159912 -980.00579712 146.94159912 -981.57788086 146.65087891 C-984 146 -984 146 -986 144 C-983.80497163 141.80497163 -979.1322708 142.04584248 -976.08984375 141.6171875 C-975.15709122 141.48236969 -974.22433868 141.34755188 -973.26332092 141.20864868 C-970.15525118 140.76027486 -967.04638081 140.31771217 -963.9375 139.875 C-961.75449395 139.56098689 -959.57155209 139.24652728 -957.38867188 138.93164062 C-952.84513746 138.27658013 -948.30133031 137.62345994 -943.75732422 136.97167969 C-934.48683446 135.64049682 -925.21975136 134.28610731 -915.95266724 132.93145752 C-910.96861124 132.20316399 -905.98429127 131.47668134 -901 130.75 C-898.99999876 130.45834184 -896.99999876 130.16667518 -895 129.875 C-882.99999998 128.125 -882.99999998 128.125 -879.99998474 127.6875 C-878.00003476 127.39583914 -876.00008562 127.10417248 -874.00013733 126.8125 C-868.99937903 126.08319678 -863.99860603 125.3539946 -858.99780273 124.625 C-850.00691671 123.31424913 -841.01613445 122.00280843 -832.02590942 120.68753052 C-827.03817938 119.95785342 -822.05035037 119.22885411 -817.0625 118.5 C-815.58789307 118.28443451 -815.58789307 118.28443451 -814.08349609 118.06451416 C-802.7968698 116.41542499 -791.50814414 114.7824783 -780.21484375 113.1796875 C-779.15808945 113.02967285 -778.10133514 112.8796582 -777.01255798 112.72509766 C-774.89188779 112.4241031 -772.77121621 112.12311835 -770.65054321 111.82214355 C-769.61086395 111.67458618 -768.57118469 111.52702881 -767.5 111.375 C-766.46894135 111.22873169 -765.43788269 111.08246338 -764.37557983 110.9317627 C-750.4020036 108.94688206 -736.45096857 106.85586147 -722.51318359 104.63452148 C-714.26220112 103.32750551 -706.00470272 102.17004287 -697.71520996 101.13726807 C-690.76905338 100.25942665 -683.85410992 99.23286386 -676.9375 98.1484375 C-663.59524267 96.07698308 -650.2380138 94.11976892 -636.875 92.1875 C-634.47385823 91.83940323 -632.07273557 91.49117459 -629.67163086 91.14282227 C-624.79497423 90.43534793 -619.9182578 89.72828796 -615.04150391 89.02148438 C-604.54756761 87.49990214 -594.05502609 85.9687705 -583.5625 84.4375 C-581.59163617 84.14996962 -579.62077029 83.86245334 -577.64990234 83.57495117 C-573.72899679 83.00297842 -569.80809883 82.43095373 -565.88720703 81.85888672 C-556.92721899 80.55165159 -547.96712958 79.24511156 -539.00704956 77.93850708 C-534.00469572 77.20903205 -529.00234817 76.47951388 -524 75.75 C-522.00000003 75.45833313 -520.00000003 75.16666646 -518 74.875 C-516.515 74.6584375 -516.515 74.6584375 -515 74.4375 C-496 71.66666667 -477 68.89583333 -458 66.125 C-457.01011078 65.98064011 -456.02022156 65.83628021 -455.00033569 65.68754578 C-452.99921793 65.39571822 -450.99809895 65.10389898 -448.99697876 64.81208801 C-444.01407066 64.08545085 -439.03118332 63.35867194 -434.04833984 62.6315918 C-424.84437657 61.28872836 -415.64022882 59.94717412 -406.43536377 58.61050415 C-380.70402063 54.89666398 -380.70402063 54.89666398 -355 51 C-343.67795955 49.2331067 -332.34193521 47.56348683 -321.00366211 45.90454102 C-318.92154138 45.59981322 -316.83950596 45.29450183 -314.75756836 44.98852539 C-302.80052123 43.23245902 -290.84096127 41.53998989 -278.84516907 40.06748962 C-273.64101891 39.41217947 -268.54181794 38.53784547 -263.40681458 37.47166443 C-259.64635041 36.73472474 -255.86392188 36.25259029 -252.0625 35.78125 C-251.2569165 35.67784302 -250.45133301 35.57443604 -249.62133789 35.46789551 C-246.22835591 35.03247213 -242.83435923 34.60521012 -239.44042969 34.17724609 C-227.37689807 32.67134456 -227.37689807 32.67134456 -215.42578125 30.47363281 C-209.99675524 29.41361767 -204.48489791 28.82291696 -199 28.125 C-189.69142814 26.91667987 -180.3981934 25.64652568 -171.125 24.1875 C-158.88741263 22.26705944 -146.63338192 20.46964567 -134.375 18.6875 C-133.34763733 18.53807953 -132.32027466 18.38865906 -131.26177979 18.23471069 C-125.95943589 17.46366586 -120.6569902 16.693324 -115.35449219 15.92333984 C-106.22468629 14.59724713 -97.09579187 13.26491014 -87.96685791 11.93283081 C-85.00902302 11.50131636 -82.05114924 11.07006956 -79.09326172 10.63891602 C-69.71999262 9.27255799 -60.34691287 7.90492972 -50.97436523 6.53363037 C-46.54872617 5.8861805 -42.12299937 5.23933157 -37.69726562 4.5925293 C-35.58784663 4.28407348 -33.47847066 3.97532333 -31.36914062 3.66625977 C-28.44411896 3.23769807 -25.51895047 2.81015174 -22.59375 2.3828125 C-21.30954163 2.19424179 -21.30954163 2.19424179 -19.99938965 2.00186157 C-6.27380631 0 -6.27380631 0 0 0 Z " fill="#00CFFE" transform="translate(1657,421)"/>
<path d="M0 0 C171.93 0 343.86 0 521 0 C523.45639654 21.49346974 525.80911901 42.89236872 527.5625 64.4375 C528.83454235 79.9454562 530.20966175 95.42668191 531.90538025 110.8946228 C533.09679087 121.7737304 534.13123613 132.66382616 535.125 143.5625 C535.29538384 145.41342887 535.46595706 147.26434032 535.63671875 149.11523438 C535.95649425 152.58192503 536.27287901 156.04889845 536.58691406 159.51611328 C536.83479424 162.2404352 537.09762975 164.96138538 537.37402344 167.68310547 C537.47489258 168.6835791 537.57576172 169.68405273 537.6796875 170.71484375 C537.81093018 171.9522229 537.81093018 171.9522229 537.94482422 173.21459961 C537.97213623 174.0983728 537.97213623 174.0983728 538 175 C536.12527838 176.87472162 533.41589694 176.12395552 530.92107961 176.13100848 C530.03650359 176.12838146 529.15192758 176.12575445 528.24054623 176.12304783 C527.30572173 176.12420167 526.37089724 176.12535552 525.40774474 176.12654433 C522.2337215 176.12921906 519.05974766 176.12468183 515.88572693 176.12025452 C513.60384915 176.12069004 511.32197142 176.12156461 509.04009396 176.12284368 C502.73727667 176.12509228 496.4344762 176.12106241 490.13166106 176.11606562 C484.04276364 176.11172055 477.95386614 176.1130248 471.86496764 176.11374746 C459.40361769 176.11506351 446.94227302 176.11171185 434.48092461 176.10573006 C422.1367738 176.09981967 409.79262519 176.09596545 397.44847298 176.09487724 C396.68189195 176.0948085 395.91531092 176.09473976 395.12550016 176.09466894 C391.23266428 176.09433062 387.3398284 176.09402923 383.44699252 176.09374207 C355.85048375 176.09163982 328.25397785 176.08489735 300.6574707 176.07543945 C273.84236669 176.06625994 247.02726347 176.05917392 220.2121582 176.05493164 C218.97303611 176.05473435 218.97303611 176.05473435 217.70888125 176.05453308 C209.41328072 176.05321459 201.11768018 176.05193877 192.82207964 176.05069422 C175.92191881 176.04815778 159.02175804 176.04533653 142.12159729 176.04234314 C140.95595016 176.0421372 140.95595016 176.0421372 139.76675461 176.04192711 C87.84450186 176.03272135 35.92225076 176.01685481 -16 176 C-16.00440912 174.39162596 -16.00756288 172.78324844 -16.01018143 171.17487049 C-16.01207135 170.27920583 -16.01396128 169.38354116 -16.01590848 168.46073514 C-15.99966581 165.94830741 -15.86711013 163.48762248 -15.60449219 160.98901367 C-15.51715317 160.13233093 -15.42981415 159.27564819 -15.33982849 158.39300537 C-15.24315384 157.49374329 -15.14647919 156.5944812 -15.046875 155.66796875 C-14.94669571 154.69386047 -14.84651642 153.7197522 -14.74330139 152.71612549 C-14.52807931 150.62555005 -14.31074146 148.53519151 -14.09146118 146.44503784 C-13.50661035 140.86556404 -12.93831869 135.2844145 -12.37109375 129.703125 C-12.2551738 128.56423325 -12.13925385 127.42534149 -12.01982117 126.25193787 C-10.66423905 112.83283254 -9.49156603 99.39804652 -8.34472656 85.9597168 C-8.26862656 85.07886414 -8.19252655 84.19801147 -8.11412048 83.29046631 C-7.97661585 81.697205 -7.84116446 80.10376367 -7.70875549 78.5100708 C-6.99987065 70.30921334 -5.96350971 62.18983252 -5 54 C-3.35 36.18 -1.7 18.36 0 0 Z " fill="#000000" transform="translate(73,1709)"/>
<path d="M0 0 C11.55 0 23.1 0 35 0 C35 423.72 35 847.44 35 1284 C-405.22 1284 -845.44 1284 -1299 1284 C-1299 1228.89 -1299 1173.78 -1299 1117 C-1287.78 1117 -1276.56 1117 -1265 1117 C-1265 1160.89 -1265 1204.78 -1265 1250 C-847.55 1250 -430.1 1250 0 1250 C0 837.5 0 425 0 0 Z " fill="#000000" transform="translate(1614,789)"/>
<path d="M0 0 C0.76903985 -0.00205263 1.53807971 -0.00410527 2.3304238 -0.0062201 C4.92249364 -0.01190093 7.51451052 -0.01043152 10.1065855 -0.00901413 C11.97770886 -0.01159714 13.84883167 -0.01461012 15.71995372 -0.01801753 C20.87371929 -0.02609822 26.02747095 -0.0278777 31.18124211 -0.028615 C36.73487194 -0.03046367 42.28849452 -0.03801002 47.84212017 -0.04475021 C59.99072522 -0.05834119 72.13932697 -0.06435932 84.28793836 -0.06876087 C91.87017496 -0.07152175 99.45241029 -0.07575879 107.03464603 -0.08026505 C128.01831791 -0.09245823 149.0019891 -0.10279315 169.98566437 -0.10614014 C171.3426281 -0.10636177 172.69959182 -0.10658355 174.05655555 -0.10680549 C175.4168038 -0.10702613 176.77705206 -0.10724661 178.13730031 -0.10746694 C180.86621304 -0.10790949 183.59512578 -0.10835661 186.32403851 -0.10880661 C187.00065023 -0.108916 187.67726195 -0.10902539 188.37437706 -0.1091381 C210.31855311 -0.11276955 232.26269615 -0.12869322 254.20685955 -0.15199697 C277.40463254 -0.176587 300.60238739 -0.19030584 323.80017585 -0.19150805 C336.4468947 -0.19242572 349.09357032 -0.19820118 361.74027729 -0.21632767 C372.50743542 -0.2317056 383.27453695 -0.23686273 394.04170398 -0.22858956 C399.53718974 -0.22467501 405.03256143 -0.22565193 410.52803326 -0.23964691 C415.55713953 -0.25233737 420.58604545 -0.25123114 425.61515125 -0.2390562 C427.43614204 -0.23709077 429.2571468 -0.24021644 431.07811794 -0.24890056 C433.55119875 -0.25994946 436.02356703 -0.2525358 438.49662781 -0.24050903 C439.55988832 -0.25190182 439.55988832 -0.25190182 440.64462885 -0.26352477 C446.52564882 -0.20168047 450.86085388 1.34238489 455.68707561 4.69392776 C461.98351042 13.46396196 461.54293936 26.20159893 462.43707561 36.56892776 C462.60670236 38.44473859 462.77720599 40.32047031 462.94855022 42.19612503 C464.08321395 54.70834769 465.13528363 67.22812601 466.18170452 79.74800491 C466.96647439 89.12135121 467.8657831 98.47325535 468.93707561 107.81892776 C470.00135931 117.1197805 471.01476649 126.42314878 471.92096233 135.74071121 C472.1163529 137.73500113 472.31951294 139.72852521 472.52301311 141.72200394 C473.16244855 148.40384642 473.59781103 155.06563043 473.70660686 161.77595901 C473.72956829 163.06477982 473.75252972 164.35360062 473.77618694 165.68147659 C473.28474187 170.68119601 471.18487913 173.88453073 467.43707561 177.13142776 C461.80870587 179.20177242 455.83955699 179.42070683 449.90529919 179.38311005 C448.68573547 179.38747037 448.68573547 179.38747037 447.4415341 179.39191878 C444.72980685 179.39919057 442.01830788 179.39228864 439.30658245 179.38539505 C437.33769824 179.38770059 435.36881489 179.39087775 433.39993334 179.39484954 C427.99906884 179.40319327 422.59827509 179.39907414 417.19741035 179.3928771 C411.36911622 179.38835192 405.54083425 179.39533671 399.71254253 179.40083694 C388.29864792 179.40973186 376.88477961 179.40780849 365.47088397 179.40201166 C356.19485707 179.39749557 346.91883755 179.39688204 337.64280987 179.3990593 C336.65376592 179.39928845 336.65376592 179.39928845 335.64474128 179.39952224 C332.96809041 179.40014493 330.29143954 179.40078173 327.61478867 179.40144176 C302.51207782 179.40755807 277.4093813 179.40201552 252.30667266 179.39124797 C230.01045164 179.38175695 207.71425346 179.38260621 185.41803265 179.39216995 C160.36087109 179.40288208 135.3037222 179.40712428 110.24655867 179.40094543 C107.57481957 179.400304 104.90308047 179.39967832 102.23134136 179.3990593 C100.25950241 179.39859647 100.25950241 179.39859647 98.24782833 179.39812429 C88.98255376 179.39639718 79.71728729 179.39931281 70.45201397 179.4040184 C59.16132525 179.40962658 47.87066435 179.40811208 36.57997882 179.39745691 C30.81892769 179.39219939 25.05792293 179.39014489 19.29687214 179.39675522 C14.02302253 179.40271502 8.74926228 179.39943895 3.47542077 179.38880011 C1.56773699 179.38656624 -0.33995435 179.3877021 -2.24763328 179.39255169 C-4.84224521 179.39864153 -7.43655186 179.39238654 -10.03114796 179.38311005 C-10.77020498 179.38779238 -11.50926201 179.39247471 -12.2707147 179.39729893 C-18.61584661 179.35202013 -24.94667468 178.72392759 -30.43792439 175.38142776 C-36.19016246 169.29082274 -36.05087065 162.9991795 -35.85198689 155.06502151 C-35.57281855 149.1520484 -34.75574862 143.33748655 -33.91424274 137.48250198 C-32.16572099 124.98102289 -31.13467277 112.40650565 -30.00921345 99.83699417 C-29.84896163 98.05360761 -29.68848175 96.27024152 -29.52776814 94.48689651 C-29.4088068 93.16438637 -29.4088068 93.16438637 -29.28744221 91.81515884 C-28.7852132 86.31729582 -28.20416402 80.83384463 -27.56683064 75.35017776 C-26.75142645 68.28380463 -26.1267493 61.21040563 -25.56292439 54.11970901 C-25.48042942 53.08505005 -25.39793446 52.05039108 -25.31293964 50.98437881 C-24.9747795 46.71613118 -24.63977216 42.44767679 -24.31292439 38.17854691 C-24.0692593 35.01256645 -23.81671932 31.8473913 -23.56292439 28.68220901 C-23.49202595 27.72486359 -23.42112751 26.76751816 -23.34808064 25.78116226 C-22.74429614 18.36605811 -21.56474231 11.56292086 -17.56292439 5.13142776 C-11.69069126 0.50860594 -7.2723049 -0.01797567 0 0 Z " fill="#000000" transform="translate(114.5629243850708,1486.8685722351074)"/>
<path d="M0 0 C3.71563534 1.23854511 4.59458591 2.69017178 7 5.75 C8.19882812 7.25240234 8.19882812 7.25240234 9.421875 8.78515625 C9.84404297 9.31512207 10.26621094 9.84508789 10.70117188 10.39111328 C12.83374943 13.0327836 15.04437055 15.60681779 17.25 18.1875 C21.97373581 23.73638627 26.57320376 29.37951504 31.15429688 35.04638672 C35.07855806 39.8910528 39.07347759 44.66874706 43.11499023 49.41577148 C46.71714438 53.65069196 50.24366141 57.94274993 53.75390625 62.25390625 C56.15110829 65.18474631 58.57273697 68.09401638 61 71 C65.03739528 75.83482794 69.03961377 80.6966132 73.015625 85.58203125 C74.67200756 87.60033992 76.35798784 89.58507438 78.0625 91.5625 C80 94 80 94 80 96 C80.66 96 81.32 96 82 96 C83.59375 97.765625 83.59375 97.765625 85.5 100.25 C88.5832509 104.20302872 91.71759027 108.09470602 94.9375 111.9375 C98.99805074 116.79141988 103.02099522 121.67373615 107.015625 126.58203125 C108.67200756 128.60033992 110.35798784 130.58507438 112.0625 132.5625 C114 135 114 135 114 137 C114.66 137 115.32 137 116 137 C117.59375 138.765625 117.59375 138.765625 119.5 141.25 C122.5832509 145.20302872 125.71759027 149.09470602 128.9375 152.9375 C132.99805074 157.79141988 137.02099522 162.67373615 141.015625 167.58203125 C142.67200756 169.60033992 144.35798784 171.58507438 146.0625 173.5625 C148 176 148 176 148 178 C148.66 178 149.32 178 150 178 C151.33984375 179.51171875 151.33984375 179.51171875 152.9375 181.6875 C155.96486105 185.69670787 159.11455792 189.55617401 162.375 193.375 C175.67867348 209.00824377 175.67867348 209.00824377 179.75 214.875 C181.87435264 218.00197258 181.87435264 218.00197258 184.3828125 220.3828125 C186.81973431 222.81973431 188.97087446 225.31348602 191.125 228 C194.12400755 231.70995758 197.15607437 235.38063555 200.25463867 239.0078125 C201.6637096 240.65961144 203.06389006 242.31849417 204.4609375 243.98046875 C205.99578402 245.80575546 207.53999449 247.62330219 209.1015625 249.42578125 C210.60268925 251.24564039 211.94545157 252.89090315 213 255 C212.40295643 258.4330005 211.44012374 259.55987626 209 262 C207.03222656 262.45483398 207.03222656 262.45483398 204.640625 262.74609375 C203.77179688 262.86146484 202.90296875 262.97683594 202.0078125 263.09570312 C200.18513523 263.32160151 198.36222065 263.54559417 196.5390625 263.76757812 C189.33971497 264.68043713 189.33971497 264.68043713 183 268 C178.81636501 275.82400172 179.55855921 284.43318025 179.56762695 293.06445312 C179.55860231 294.79960831 179.54827337 296.53475712 179.53674316 298.26989746 C179.50922952 302.96350589 179.4998963 307.65699316 179.49388909 312.35067177 C179.48449075 317.26210938 179.45828617 322.17345702 179.43388367 327.08483887 C179.39025516 336.37770437 179.36168577 345.67055238 179.33856028 354.96348906 C179.31148906 365.54635462 179.26757872 376.12912951 179.22227156 386.71193027 C179.12947753 408.47457137 179.05777278 430.2372396 179 452 C175.1875175 452.02987479 171.37506619 452.04708234 167.5625 452.0625 C166.51255859 452.07087891 165.46261719 452.07925781 164.38085938 452.08789062 C155.22279069 452.11539233 146.13311617 451.61006657 137 451 C136.99761165 450.09939567 136.99522329 449.19879133 136.99276257 448.27089596 C136.93361809 426.35386531 136.85807146 404.43694467 136.76428509 382.52003384 C136.71932586 371.92116223 136.67991144 361.32232423 136.65356445 350.72338867 C136.63058545 341.48500207 136.59718843 332.24672183 136.55129844 323.00841957 C136.52736498 318.11712795 136.50863698 313.22594166 136.50238609 308.33459282 C136.49633584 303.72907471 136.476338 299.12382613 136.44572449 294.51840782 C136.43694334 292.82979453 136.43322184 291.14114603 136.43499184 289.45251083 C136.43664839 287.1425045 136.41991378 284.83331614 136.39872742 282.52342224 C136.39411845 281.23199027 136.38950949 279.9405583 136.38476086 278.60999203 C135.82826876 273.38874352 134.42364899 269.46212599 130.6875 265.625 C125.47774864 262.47491778 119.59531358 262.84760914 113.65893555 262.83886719 C112.84346252 262.83390228 112.0279895 262.82893738 111.18780518 262.82382202 C108.50410095 262.80927996 105.82045582 262.802412 103.13671875 262.796875 C102.21568674 262.79404762 101.29465473 262.79122025 100.34571266 262.78830719 C95.47241557 262.77334721 90.59914785 262.76409741 85.72583008 262.75976562 C80.70916138 262.75428337 75.6927644 262.73025133 70.67618084 262.70179367 C66.80269094 262.68310958 62.92926578 262.67795864 59.05573463 262.67642975 C57.20708543 262.67341612 55.35843701 262.66543149 53.50983238 262.65224457 C50.91609758 262.63506155 48.32301771 262.63709382 45.72924805 262.64355469 C44.97621902 262.6343399 44.22319 262.62512512 43.44734192 262.6156311 C36.98524386 262.6656912 30.53637135 263.78880446 25.5625 268.125 C20.81375615 276.86268868 21.73345015 286.9694067 21.78881836 296.61132812 C21.79102239 298.28588775 21.79232565 299.96044876 21.7928009 301.63500977 C21.79572233 305.22481688 21.80492785 308.81453198 21.81910515 312.40431213 C21.8414395 318.07614014 21.84947176 323.74793444 21.85560608 329.4197998 C21.8669626 338.38211632 21.88767737 347.34438223 21.91250378 356.30667067 C21.95694891 372.38320662 21.98997768 388.45976109 22.01274782 404.53634214 C22.02117388 410.18020794 22.03521572 415.82402451 22.05372036 421.46786594 C22.06432417 424.96633616 22.07093257 428.46480588 22.07652092 431.96328735 C22.08000585 433.59156257 22.08523539 435.21983508 22.09228897 436.84809875 C22.10166831 439.06090107 22.10500757 441.27363073 22.10679626 443.4864502 C22.11031569 444.72747749 22.11383512 445.96850479 22.1174612 447.24713898 C22 450 22 450 21 451 C17.97022196 451.08871273 14.96332978 451.1151935 11.93359375 451.09765625 C11.02497086 451.0962413 10.11634796 451.09482635 9.18019104 451.09336853 C6.26592779 451.08775193 3.35174019 451.07519665 0.4375 451.0625 C-1.53320202 451.05748714 -3.50390524 451.05292386 -5.47460938 451.04882812 C-10.31643559 451.03777711 -15.15820495 451.02050138 -20 451 C-20.00238835 450.1045494 -20.00477671 449.2090988 -20.00723743 448.28651333 C-20.06638254 426.49466026 -20.14192956 404.70291783 -20.23571491 382.91118526 C-20.28067367 372.37284788 -20.3200882 361.83454429 -20.34643555 351.29614258 C-20.36941492 342.11049333 -20.40281236 332.92495104 -20.44870156 323.73938662 C-20.47263451 318.87604058 -20.49136285 314.01280048 -20.49761391 309.1493969 C-20.50366439 304.57014292 -20.52366305 299.99115999 -20.55427551 295.41200638 C-20.56305629 293.73306854 -20.56677823 292.05409529 -20.56500816 290.37513542 C-20.56335148 288.07826457 -20.58008733 285.78221617 -20.60127258 283.48545837 C-20.60818603 281.55937193 -20.60818603 281.55937193 -20.61523914 279.59437466 C-21.15155112 274.58423358 -22.67711919 270.7480925 -25.75 266.6875 C-31.00010666 262.74992001 -37.22259567 262.7048774 -43.51464844 262.7253418 C-44.74788849 262.7176754 -44.74788849 262.7176754 -46.00604248 262.70985413 C-48.7072287 262.69602564 -51.40815772 262.69691026 -54.109375 262.69921875 C-56.00116062 262.69532721 -57.89294537 262.69099159 -59.784729 262.68623352 C-63.74551223 262.6787851 -67.7062063 262.67905192 -71.66699219 262.68432617 C-76.71821012 262.69010908 -81.76905997 262.67321157 -86.82021713 262.6499815 C-90.72725524 262.63517581 -94.6342062 262.63438189 -98.5412674 262.63749123 C-100.40221127 262.63698112 -102.26316043 262.63180233 -104.12407684 262.62167931 C-118.67285747 261.81585807 -118.67285747 261.81585807 -132 266 C-133.75357665 270.94923896 -134.2562069 275.33258669 -134.2784729 280.56138611 C-134.2842653 281.29015585 -134.2900577 282.01892559 -134.29602563 282.76977926 C-134.31293312 285.19414018 -134.31589408 287.61830966 -134.31884766 290.04272461 C-134.32815223 291.78758201 -134.33832169 293.53243498 -134.34928894 295.27728271 C-134.3765433 300.00191475 -134.39172483 304.72651704 -134.40471697 309.45120692 C-134.42036748 314.39333293 -134.44715159 319.33539838 -134.4727478 324.27748108 C-134.51950158 333.63058211 -134.55626216 342.98369458 -134.58942068 352.33685261 C-134.62766608 362.98739391 -134.67706992 373.63787434 -134.72740483 384.28836429 C-134.83067411 406.19219789 -134.91995079 428.09607004 -135 450 C-140.27742004 451.75005667 -144.80114305 452.27369124 -150.33984375 452.1953125 C-151.10680069 452.1924826 -151.87375763 452.18965271 -152.66395569 452.18673706 C-155.08863621 452.17563475 -157.51293309 452.15054967 -159.9375 452.125 C-161.5917915 452.1149573 -163.24608885 452.10583372 -164.90039062 452.09765625 C-168.93373923 452.07572817 -172.9668048 452.04126843 -177 452 C-177.00238835 451.13492702 -177.00477671 450.26985405 -177.00723743 449.37856674 C-177.06646652 428.29429982 -177.14206711 407.21014646 -177.23571491 386.12600327 C-177.28061139 375.92971584 -177.32004017 365.73346287 -177.34643555 355.53710938 C-177.36946549 346.64622883 -177.40291912 337.75545787 -177.44870156 328.86466432 C-177.47256653 324.16044907 -177.49133928 319.45634189 -177.49761391 314.75206757 C-177.50369532 310.31643127 -177.52380455 305.88107125 -177.55427551 301.44553757 C-177.56300703 299.82513987 -177.56678855 298.20470598 -177.56500816 296.58428574 C-177.19410933 281.16803941 -177.19410933 281.16803941 -183 267.4375 C-192.41644548 262.92545321 -202.74896835 262.09327188 -213 261 C-213.495 259.515 -213.495 259.515 -214 258 C-212.48046875 255.72265625 -212.48046875 255.72265625 -210.1875 253.0625 C-209.36507812 252.09441406 -208.54265625 251.12632812 -207.6953125 250.12890625 C-207.25606445 249.6198877 -206.81681641 249.11086914 -206.36425781 248.58642578 C-204.51666934 246.43795945 -202.70016924 244.26433939 -200.88598633 242.08764648 C-199.61697686 240.56535013 -198.34182527 239.0481803 -197.06640625 237.53125 C-194.92207068 234.98762942 -194.92207068 234.98762942 -193 232 C-192.34 232 -191.68 232 -191 232 C-190.61521484 230.89011719 -190.61521484 230.89011719 -190.22265625 229.7578125 C-188.94425459 226.87426115 -187.58890656 225.16114111 -185.4375 222.875 C-182.41129247 219.5766515 -179.50621602 216.22776832 -176.6875 212.75 C-172.73922247 207.87999915 -168.70781793 203.08838277 -164.62963867 198.32714844 C-162.60089737 195.94732843 -160.73750513 193.60625769 -159 191 C-158.34 191 -157.68 191 -157 191 C-156.61521484 189.89011719 -156.61521484 189.89011719 -156.22265625 188.7578125 C-154.94425459 185.87426115 -153.58890656 184.16114111 -151.4375 181.875 C-145.5169582 175.41720395 -139.93707357 168.68740017 -134.75 161.625 C-132.41695504 158.45594727 -129.82471522 155.74625091 -127 153 C-126.34 152.01 -125.68 151.02 -125 150 C-124.34 150 -123.68 150 -123 150 C-122.74347656 149.26007813 -122.48695313 148.52015625 -122.22265625 147.7578125 C-120.94425459 144.87426115 -119.58890656 143.16114111 -117.4375 140.875 C-110.89539242 133.73923474 -104.76267561 126.28368982 -99.19140625 118.36328125 C-98.79824219 117.91339844 -98.40507812 117.46351563 -98 117 C-97.34 117 -96.68 117 -96 117 C-95.75378906 116.44441406 -95.50757813 115.88882813 -95.25390625 115.31640625 C-93.75995594 112.55655412 -91.94941592 110.34683141 -89.9375 107.9375 C-89.12925781 106.96425781 -88.32101563 105.99101562 -87.48828125 104.98828125 C-86.66714844 104.00214844 -85.84601563 103.01601563 -85 102 C-83.54022149 100.20951061 -82.08186408 98.41786157 -80.625 96.625 C-76.6624464 91.77332218 -72.62200966 86.99139073 -68.54150391 82.23876953 C-66.00558572 79.30216083 -66.00558572 79.30216083 -64 76 C-63.34 76 -62.68 76 -62 76 C-61.75378906 75.44441406 -61.50757813 74.88882813 -61.25390625 74.31640625 C-59.75995594 71.55655412 -57.94941592 69.34683141 -55.9375 66.9375 C-55.12925781 65.96425781 -54.32101562 64.99101562 -53.48828125 63.98828125 C-52.66714844 63.00214844 -51.84601563 62.01601563 -51 61 C-49.54022149 59.20951061 -48.08186408 57.41786157 -46.625 55.625 C-42.6624464 50.77332218 -38.62200966 45.99139073 -34.54150391 41.23876953 C-32.00558572 38.30216083 -32.00558572 38.30216083 -30 35 C-29.34 35 -28.68 35 -28 35 C-27.75507813 34.44570312 -27.51015625 33.89140625 -27.2578125 33.3203125 C-25.74796208 30.53506049 -23.90832867 28.30507573 -21.875 25.875 C-18.87125579 22.26186998 -15.9052109 18.63026807 -13 14.9375 C-8.88026128 9.76290883 -4.47469271 4.86829994 0 0 Z " fill="#000000" transform="translate(333,209)"/>
<path d="M0 0 C55.39940631 -0.02286386 110.79881215 -0.04049694 166.19822225 -0.05106533 C172.73118789 -0.05231611 179.26415352 -0.05361043 185.79711914 -0.05493164 C187.74810181 -0.05532511 187.74810181 -0.05532511 189.73849828 -0.05572652 C210.82840019 -0.06008378 231.91829939 -0.06797163 253.00819968 -0.0771528 C274.63099162 -0.08648779 296.25378214 -0.09205528 317.87657601 -0.09408849 C331.23058745 -0.09546404 344.58459123 -0.09981635 357.93860031 -0.10791647 C367.08252034 -0.11318203 376.22643637 -0.11480473 385.3703578 -0.11350138 C390.65440724 -0.1128577 395.93844324 -0.11387885 401.22249031 -0.11920547 C406.05153677 -0.12403819 410.88056063 -0.1243395 415.70960809 -0.12089889 C417.46466183 -0.12047307 419.21971694 -0.12176988 420.97476798 -0.12488318 C423.34433902 -0.1288451 425.71382644 -0.1267647 428.08339596 -0.12304783 C428.77865921 -0.12567484 429.47392246 -0.12830186 430.1902543 -0.13100848 C434.8858542 -0.1141458 434.8858542 -0.1141458 436 1 C436.26658618 3.25110864 436.46990174 5.50973408 436.6484375 7.76953125 C436.7053627 8.46783051 436.7622879 9.16612976 436.82093811 9.8855896 C436.94423682 11.39887395 437.06568476 12.91230996 437.18551636 14.4258728 C437.50698874 18.47495446 437.84401834 22.52271351 438.18359375 26.5703125 C438.25197952 27.38567978 438.3203653 28.20104706 438.39082336 29.04112244 C438.96343965 35.76977667 439.67344152 42.47793265 440.4375 49.1875 C442.14285311 64.32436499 443.33643099 79.50384459 444.55444336 94.6862793 C445.35142434 104.56754268 446.22218597 114.42967333 447.2877655 124.28572083 C448.11114559 131.93285123 448.79916535 139.57988249 449.375 147.25 C449.43510254 147.91692871 449.49520508 148.58385742 449.55712891 149.27099609 C450.78228332 162.94583282 450.78228332 162.94583282 446 169 C445.57460938 169.64710938 445.14921875 170.29421875 444.7109375 170.9609375 C440.74124852 175.16277204 436.46023729 175.46398742 430.93521118 175.64456177 C429.74501891 175.69630953 429.74501891 175.69630953 428.53078234 175.74910271 C419.57802633 176.1117478 410.62052779 176.22736307 401.66162109 176.31201172 C399.7785329 176.33249756 397.89544707 176.35320215 396.01236343 176.37410355 C390.88811223 176.42934416 385.76381997 176.47821746 380.63948488 176.52496576 C377.35616772 176.55507513 374.07286514 176.58650763 370.78956223 176.61812973 C315.90180488 177.13997933 261.01311429 177.15364154 206.1234611 177.12946185 C195.71609261 177.12496462 185.3087355 177.12585702 174.90136719 177.13037109 C69.29500689 177.17456087 69.29500689 177.17456087 26.40838575 176.70266485 C24.18130378 176.68002166 21.95424028 176.66256552 19.72710037 176.64673233 C15.76227707 176.61772626 11.79801852 176.56458869 7.83349609 176.50732422 C6.71285137 176.5013258 5.59220665 176.49532738 4.437603 176.48914719 C-1.44953173 176.37767098 -5.82987944 175.91176707 -11 173 C-18.34307627 163.45400085 -14.85506106 148.73201179 -13.7578125 137.64453125 C-13.62763698 136.28997497 -13.49791682 134.93537486 -13.36862183 133.58073425 C-13.09800225 130.75749555 -12.82372193 127.93464734 -12.54638672 125.11206055 C-12.19612542 121.54688645 -11.85234287 117.98112797 -11.51094532 114.41509533 C-9.18254046 90.1087284 -9.18254046 90.1087284 -7.92578125 79.9140625 C-6.57770224 68.86668116 -5.73780726 57.77120405 -4.82543945 46.6809082 C-3.87490108 35.179687 -2.77818648 23.71199506 -1.43139648 12.24975586 C-1.29326286 11.06383598 -1.15512924 9.87791611 -1.01280975 8.65605927 C-0.67652226 5.77054983 -0.33889986 2.88520358 0 0 Z " fill="#000000" transform="translate(116,1266)"/>
<path d="M0 0 C1.24463473 -0.00720654 2.48926946 -0.01441309 3.77162039 -0.02183801 C5.14486943 -0.01466155 6.51811701 -0.00720267 7.89136314 0.00050831 C9.35642103 -0.00223301 10.82147695 -0.00628571 12.28652799 -0.01153535 C16.30884209 -0.02212133 20.33093393 -0.01399368 24.35323834 -0.00278485 C28.69288106 0.00605639 33.03249466 -0.00238632 37.37213707 -0.00864697 C45.87378665 -0.01813888 54.37535139 -0.01153085 62.87699468 0.00061598 C72.78163757 0.01423952 82.68626025 0.01259767 92.59091012 0.01048265 C110.27012923 0.00729192 127.94930808 0.01896325 145.62851524 0.03854847 C162.77240794 0.05753562 179.91625341 0.06464062 197.06015587 0.05905628 C215.73167037 0.05299232 234.40316409 0.05318819 253.07467687 0.06454211 C255.06770412 0.06574938 257.06073137 0.06695536 259.05375862 0.06816006 C260.5246058 0.06906537 260.5246058 0.06906537 262.02516706 0.06998896 C268.9235575 0.07386239 275.82194019 0.07347664 282.72033119 0.07157421 C291.13589082 0.06944738 299.55140915 0.07471278 307.96695717 0.08918776 C312.25801842 0.09641007 316.54901969 0.10052741 320.84008598 0.0959444 C324.774521 0.0918447 328.70883259 0.09709915 332.64324896 0.10957048 C334.06049831 0.11247958 335.47775944 0.1120933 336.89500566 0.1079274 C349.10561279 0.07531675 361.29740178 0.31019636 371.73544884 7.37473011 C379.79205327 15.85536635 380.72533575 30.77515878 382.23544884 41.93723011 C382.3387249 42.6784914 382.44200096 43.41975269 382.5484066 44.18347645 C385.22697164 63.50386924 386.86576212 82.92285681 388.48288536 102.35538197 C388.83589691 106.57556765 389.19707006 110.79504429 389.55779076 115.01457691 C390.01626367 120.3843397 390.47031321 125.75447243 390.92294884 131.12473011 C391.00771477 132.12966511 391.0924807 133.13460011 391.17981529 134.16998768 C391.71741178 140.57013075 392.23583484 146.97151393 392.73544884 153.37473011 C392.79831078 154.16081654 392.86117271 154.94690296 392.92593956 155.75681019 C393.09664386 157.92577264 393.25603922 160.09523422 393.41123009 162.26535511 C393.49928917 163.45677113 393.58734825 164.64818714 393.67807579 165.87570667 C393.73544884 169.37473011 393.73544884 169.37473011 392.73544884 177.37473011 C252.81544884 177.37473011 112.89544884 177.37473011 -31.26455116 177.37473011 C-25.97223507 110.33872623 -25.97223507 110.33872623 -24.32705116 96.16379261 C-23.42593837 88.33212433 -22.73444893 80.48845289 -22.08095741 72.63254261 C-21.97871361 71.40749012 -21.8764698 70.18243763 -21.7711277 68.92026234 C-21.34875507 63.83886876 -20.92891825 58.75729491 -20.51723671 53.67502308 C-18.50497446 28.9275326 -18.50497446 28.9275326 -16.79189491 16.86691761 C-16.68390068 16.0668227 -16.57590645 15.26672779 -16.46463966 14.44238758 C-15.80717606 10.14558559 -15.05632125 6.75825281 -12.26455116 3.37473011 C-8.02264624 0.8614622 -4.90814531 -0.00025173 0 0 Z " fill="#000000" transform="translate(152.26455116271973,1040.6252698898315)"/>
<path d="M0 0 C440.22 0 880.44 0 1334 0 C1334 127.05 1334 254.1 1334 385 C1322.45 385.33 1310.9 385.66 1299 386 C1299 269.51 1299 153.02 1299 33 C881.55 33 464.1 33 34 33 C34 82.83 34 132.66 34 184 C22.78 184 11.56 184 0 184 C0 123.28 0 62.56 0 0 Z " fill="#000000" transform="translate(315,0)"/>
<path d="M0 0 C1.17729266 -0.00720654 2.35458532 -0.01441309 3.56755352 -0.02183801 C4.85693734 -0.01446372 6.14632116 -0.00708944 7.47477722 0.00050831 C8.86146506 -0.0022324 10.24815082 -0.00628458 11.63483143 -0.01153535 C15.4448919 -0.02212948 19.25471803 -0.01398856 23.06476831 -0.00278485 C27.17389098 0.00605081 31.28298277 -0.00238452 35.3921051 -0.00864697 C43.44169128 -0.01814071 51.49118789 -0.01153008 59.54076743 0.00061598 C68.91168986 0.01422965 78.2825909 0.01259867 87.6535207 0.01048265 C104.37187136 0.00729192 121.09017943 0.01896528 137.80851746 0.03854847 C154.03704628 0.05755297 170.26552518 0.06463612 186.49406433 0.05905628 C204.1590932 0.05300052 221.82410011 0.05317184 239.48912716 0.06454211 C241.37223244 0.06574942 243.25533771 0.06695541 245.13844299 0.06816006 C246.06500554 0.0687636 246.99156809 0.06936713 247.9462083 0.06998896 C254.480687 0.07387075 261.01515754 0.07347347 267.54963684 0.07157421 C275.51124321 0.0694536 283.47280581 0.07466616 291.43439984 0.08918776 C295.49775814 0.0964388 299.56105265 0.10050274 303.62441635 0.0959444 C307.34264551 0.09187466 311.06074286 0.0970144 314.778952 0.10957048 C316.76430741 0.11389538 318.74967667 0.10840048 320.73502827 0.1025812 C322.50096726 0.11132949 322.50096726 0.11132949 324.30258179 0.12025452 C325.31866107 0.12112129 326.33474035 0.12198807 327.38160992 0.12288111 C331.70603418 0.51610399 334.4506826 1.82076076 337.83879089 4.49973011 C343.23285614 11.20586528 342.73228532 20.6653092 343.35484314 28.93015003 C344.33045245 41.77387821 345.53118589 54.58134425 347.02629089 67.37473011 C347.10777374 68.07329121 347.18925659 68.7718523 347.27320862 69.49158192 C347.70311939 73.16663915 348.13761518 76.84113644 348.57463074 80.51535511 C349.56486947 88.84479538 350.53350935 97.17677521 351.50413513 105.50851917 C351.83068009 108.30526392 352.15947677 111.10173624 352.48869324 113.89816761 C355.3293962 138.10019923 355.3293962 138.10019923 355.33879089 148.31223011 C355.35103699 149.03990589 355.36328308 149.76758167 355.37590027 150.51730824 C355.38620444 154.27145998 355.38383884 157.2613129 353.15129089 160.37473011 C344.76841124 165.89516305 333.42816299 164.52026866 323.79078674 164.50844288 C322.34020257 164.51031343 320.88961889 164.5126151 319.43903601 164.5153082 C315.47092624 164.521402 311.50283761 164.52129548 307.53472424 164.52011383 C303.24840663 164.51990922 298.96209571 164.52543416 294.67578125 164.53017139 C286.28654092 164.53846415 277.89730762 164.54122557 269.50806354 164.54178377 C262.69006833 164.54225938 255.87207544 164.54431637 249.05408096 164.5474844 C229.7192403 164.55628556 210.38440518 164.56090437 191.0495625 164.56015392 C190.00805474 164.56011397 188.96654699 164.56007401 187.89347839 164.56003284 C186.8506983 164.55999196 185.8079182 164.55995108 184.7335387 164.55990896 C167.81916381 164.55950217 150.90481114 164.5690815 133.99044268 164.58317121 C116.61844173 164.59752794 99.24645163 164.60444185 81.8744446 164.60357744 C72.12298113 164.60324533 62.37154099 164.60599881 52.62008286 164.61675549 C44.32157322 164.62585101 36.0230975 164.62804338 27.72458504 164.62124606 C23.49082446 164.61797667 19.25712899 164.61793939 15.02337456 164.62659931 C11.14730823 164.63444619 7.27135886 164.6330515 3.39529546 164.62431518 C1.99369902 164.62277625 0.59209393 164.62461114 -0.8094923 164.63017526 C-17.10625131 164.69058336 -17.10625131 164.69058336 -22.66120911 159.99973011 C-26.75633694 155.08557671 -27.23483637 151.26307669 -27.22370911 144.93723011 C-27.22354797 144.05414173 -27.22338684 143.17105335 -27.22322083 142.26120472 C-26.94395589 124.50730385 -24.58325741 106.48915984 -21.87214661 88.95285511 C-20.1780258 77.38635777 -19.3664519 65.70314451 -18.34870911 54.06223011 C-17.53809366 44.83090212 -16.71402167 35.60110692 -15.84870911 26.37473011 C-15.76443665 25.46289967 -15.68016418 24.55106922 -15.59333801 23.61160755 C-15.36939317 21.2458211 -15.12872447 18.88254884 -14.87995911 16.51926136 C-14.75169739 15.26089466 -14.62343567 14.00252796 -14.49128723 12.70602894 C-13.59738795 8.07181323 -12.49809989 4.5861237 -8.6050005 1.72684032 C-5.46972974 0.18882021 -3.4769352 -0.00018826 0 0 Z " fill="#000000" transform="translate(169.8487091064453,835.6252698898315)"/>
<path d="M0 0 C0.9227264 -0.00436032 1.8454528 -0.00872064 2.79614061 -0.0132131 C5.91712401 -0.0242431 9.0376724 -0.01371134 12.15865326 -0.00342751 C14.40712286 -0.00688101 16.65559078 -0.01164349 18.90405512 -0.01760924 C25.1053886 -0.03019115 31.30658447 -0.02391629 37.5079186 -0.01465058 C43.50171853 -0.00858335 49.49549505 -0.01654243 55.48928963 -0.02409268 C68.51002357 -0.03991328 81.53071344 -0.03851145 94.55145161 -0.02985594 C105.94589893 -0.02231841 117.34033006 -0.0203349 128.73477936 -0.02392387 C129.48969676 -0.02415303 130.24461416 -0.02438218 131.02240785 -0.02461828 C134.08662647 -0.02555225 137.15084509 -0.02650745 140.2150637 -0.02749758 C168.97785627 -0.03668093 197.74062072 -0.02834412 226.50340895 -0.01220688 C252.07466268 0.00203064 277.6458716 0.00075678 303.21712494 -0.01358986 C331.9262751 -0.02964305 360.6354004 -0.03602973 389.34455442 -0.02675307 C392.40328947 -0.02579087 395.46202453 -0.02485235 398.52075958 -0.02392387 C399.65052245 -0.02356803 399.65052245 -0.02356803 400.8031088 -0.02320499 C412.19224505 -0.01978814 423.58136336 -0.02379163 434.97049713 -0.03136253 C447.9164643 -0.03992527 460.86238037 -0.03782804 473.80834115 -0.0215203 C480.41922722 -0.01346812 487.03004086 -0.01059012 493.64092827 -0.02046776 C499.68451086 -0.02936149 505.72791716 -0.02457023 511.7714836 -0.0085351 C513.96591284 -0.0051646 516.16035676 -0.00693171 518.35477668 -0.01416247 C521.32191367 -0.02319463 524.28843494 -0.01402098 527.25553894 0 C528.12116862 -0.0070235 528.9867983 -0.014047 529.87865919 -0.02128333 C535.6951166 0.03421162 535.6951166 0.03421162 537.84502068 1.74016919 C539.73342805 4.15061138 539.51590335 6.0377044 539.5318222 9.07063866 C539.54450638 10.23872566 539.55719055 11.40681267 539.57025909 12.61029625 C539.56585564 14.50407761 539.56585564 14.50407761 539.56136322 16.43611717 C539.56660507 17.73195229 539.57184692 19.0277874 539.57724762 20.36289024 C539.58618178 23.10590406 539.5837528 25.84862678 539.57381439 28.59163475 C539.56232863 32.10363596 539.58252663 35.61463111 539.61173153 39.12650013 C539.63451178 42.47975911 539.62762626 45.83278263 539.62386322 49.18611717 C539.6350972 50.44661385 539.64633118 51.70711052 539.65790558 53.00580406 C539.64852463 54.17704323 539.63914368 55.34828239 539.62947845 56.55501366 C539.6292292 58.10031006 539.6292292 58.10031006 539.62897491 59.67682457 C538.96238519 63.26868121 538.07317139 64.2091452 535.12776947 66.37752342 C532.13798062 66.97420031 529.18835624 66.91215551 526.14810848 66.87809467 C525.22591661 66.88360884 524.30372474 66.88912301 523.35358766 66.89480427 C520.24032304 66.9084804 517.12784568 66.89345849 514.01459503 66.87872887 C511.7693859 66.88261881 509.52417923 66.88825677 507.27897841 66.89549977 C501.09126456 66.91031627 494.90380359 66.90003641 488.71609771 66.88576305 C482.7340788 66.87582835 476.75209593 66.88461651 470.77008103 66.89288699 C457.77630009 66.91009795 444.78260339 66.90452623 431.78882417 66.8895298 C420.41856357 66.87649123 409.04833222 66.8712795 397.67806435 66.87384796 C396.54787087 66.87408858 396.54787087 66.87408858 395.39484521 66.87433407 C392.33650484 66.87499763 389.27816449 66.87570003 386.21982415 66.87645941 C357.51630245 66.88348728 328.81283228 66.86797905 300.10932369 66.84183595 C274.5916117 66.81871765 249.07395637 66.81333317 223.55623627 66.82356834 C217.0219215 66.82617022 210.48760673 66.82875519 203.95329189 66.83116627 C203.14891376 66.83146371 202.34453563 66.83176116 201.5157824 66.83206762 C180.21094643 66.83967712 158.90611512 66.83327524 137.60128123 66.82247025 C135.30973632 66.82132241 133.01819141 66.82017923 130.7266465 66.81904342 C129.20641263 66.81828817 127.68617877 66.81752253 126.16594492 66.81674642 C114.80038529 66.81108079 103.43484031 66.81242294 92.06928062 66.81697464 C79.15078232 66.82207464 66.23233896 66.81626418 53.31385439 66.79608034 C46.7171406 66.78603965 40.1204976 66.78113413 33.52377701 66.78897285 C27.49318297 66.79599249 21.46277026 66.7893127 15.43220026 66.77136923 C13.24251319 66.76730048 11.05280979 66.76836477 8.86312865 66.77488809 C5.90239437 66.78295821 2.94228305 66.77282443 -0.01841068 66.75784016 C-0.88215017 66.76457781 -1.74588966 66.77131546 -2.63580307 66.77825728 C-8.43866841 66.72088005 -8.43866841 66.72088005 -10.58942964 65.01759905 C-12.49570503 62.58040413 -12.25345361 60.6393701 -12.26041412 57.57674217 C-12.26987061 56.38540672 -12.27932709 55.19407127 -12.28907013 53.96663475 C-12.28299744 52.67910301 -12.27692474 51.39157127 -12.27066803 50.06502342 C-12.27268908 48.73128157 -12.27560079 47.39754079 -12.27936554 46.06380272 C-12.28378749 43.26950616 -12.27736243 40.47549744 -12.26334381 37.68123436 C-12.24625147 34.09977877 -12.25609342 30.5189976 -12.2740612 26.93756676 C-12.28490284 24.18374616 -12.28145107 21.43008541 -12.27367783 18.67625999 C-12.27070382 16.71363957 -12.27981345 14.75101294 -12.28907013 12.78841209 C-12.27488541 11.00140892 -12.27488541 11.00140892 -12.26041412 9.17830467 C-12.25802734 8.12812157 -12.25564056 7.07793846 -12.25318146 5.99593163 C-11.26210976 -0.81604878 -5.67788585 -0.04606892 0 0 Z " fill="#000000" transform="translate(72.87223052978516,725.6224765777588)"/>
<path d="M0 0 C9.24 0 18.48 0 28 0 C28 29.7 28 59.4 28 90 C57.04 90 86.08 90 116 90 C116 60.3 116 30.6 116 0 C124.91 0 133.82 0 143 0 C143 68.64 143 137.28 143 208 C134.09 208 125.18 208 116 208 C116 177.97 116 147.94 116 117 C86.96 117 57.92 117 28 117 C28.01160156 123.48527344 28.02320313 129.97054688 28.03515625 136.65234375 C28.04026293 140.74934995 28.0450767 144.84635226 28.04882812 148.94335938 C28.05481686 155.45305186 28.06191797 161.96273035 28.07543945 168.47241211 C28.08626735 173.71785702 28.09227662 178.96328692 28.09487724 184.20874214 C28.09673167 186.21470946 28.10035262 188.22067592 28.10573006 190.22663689 C28.11293919 193.02602824 28.113991 195.82535679 28.11352539 198.62475586 C28.11712067 199.46272705 28.12071594 200.30069824 28.12442017 201.1640625 C28.11405216 206.88594784 28.11405216 206.88594784 27 208 C18.09 208 9.18 208 0 208 C0 139.36 0 70.72 0 0 Z " fill="#000000" transform="translate(841,1624)"/>
<path d="M0 0 C0.59425781 0.41765625 1.18851563 0.8353125 1.80078125 1.265625 C12.18795493 9.28056167 17.32634998 22.30421907 19 35 C19.1674153 38.8459505 19.18781966 42.68984204 19.203125 46.5390625 C19.20882507 47.65630707 19.21452515 48.77355164 19.22039795 49.9246521 C19.22982685 52.2865098 19.23637353 54.64838054 19.24023438 57.01025391 C19.24991006 60.59171027 19.28094217 64.17258511 19.3125 67.75390625 C19.31903396 70.05728829 19.32428289 72.3606744 19.328125 74.6640625 C19.3404718 75.72074127 19.3528186 76.77742004 19.36553955 77.86611938 C19.32426601 91.90507736 15.43854457 105.39246138 6 116 C-6.78711055 128.53136833 -22.27564048 133.14927749 -39.91357422 133.05517578 C-55.47307984 132.64370278 -73.0142892 129.44399841 -84.14453125 117.74609375 C-97.66565165 101.71641669 -98.50620133 84.47033825 -98.39111328 64.35058594 C-98.37503244 61.00674645 -98.39102919 57.66411536 -98.41015625 54.3203125 C-98.43014212 34.95274836 -96.8666716 17.10965432 -82.82421875 2.328125 C-60.9557515 -15.69899323 -22.75055516 -16.49293977 0 0 Z M-64.125 24.75 C-69.63868806 32.16543158 -70 37.37012173 -70 47 C-49.54 47 -29.08 47 -8 47 C-9.64176782 32.68723194 -9.64176782 32.68723194 -17.890625 22.4140625 C-30.32125703 13.94752966 -53.34118594 13.28937753 -64.125 24.75 Z M-70 75 C-70 83.52037944 -69.66364978 88.6592374 -65.3125 95.75 C-57.7376528 103.1201216 -49.84554566 105.04525695 -39.5 105.25 C-29.87853111 105.04862042 -22.35141554 103.62341128 -15 97 C-9.4731993 90.33018699 -9.35075237 83.7798904 -8 75 C-28.46 75 -48.92 75 -70 75 Z " fill="#000000" transform="translate(1120,1699)"/>
<path d="M0 0 C0 -1.98 0 -3.96 0 -6 C9.24 -6 18.48 -6 28 -6 C28.02254613 12.6276143 28.04097865 31.2552176 28.05181217 49.88284206 C28.05697536 58.53135605 28.06401848 67.17986097 28.07543945 75.82836914 C28.08538561 83.36364579 28.09185326 90.89891588 28.09408849 98.43419892 C28.09539572 102.42655852 28.0984823 106.41889936 28.10573006 110.41125298 C28.1124892 114.16467098 28.11461718 117.91806239 28.11310768 121.6714859 C28.11338406 123.05302894 28.11538981 124.43457281 28.11920547 125.81611061 C28.12414099 127.69437145 28.12239796 129.57264638 28.12025452 131.45091248 C28.12117631 132.50452186 28.1220981 133.55813124 28.12304783 134.64366817 C28 137 28 137 27 138 C25.00035018 138.08758003 22.9976389 138.10696576 20.99609375 138.09765625 C19.78115234 138.09443359 18.56621094 138.09121094 17.31445312 138.08789062 C16.03505859 138.07951172 14.75566406 138.07113281 13.4375 138.0625 C12.15423828 138.05798828 10.87097656 138.05347656 9.54882812 138.04882812 C6.36583978 138.03699545 3.18294238 138.02051068 0 138 C0 136.02 0 134.04 0 132 C-0.94617187 132.34933594 -1.89234375 132.69867187 -2.8671875 133.05859375 C-13.29573703 136.71899862 -22.97021222 138.04293835 -34 138 C-35.06992188 138 -36.13984375 138 -37.2421875 138 C-50.18238369 137.43890748 -62.76901855 132.89247141 -73 125 C-73.65355469 124.50113281 -74.30710937 124.00226563 -74.98046875 123.48828125 C-86.00188361 113.82933711 -89.23216377 98.43955145 -90.1706543 84.45751953 C-90.40453393 79.04632604 -90.42824765 73.64028199 -90.39111328 68.22485352 C-90.37499431 65.43651597 -90.39108012 62.64962288 -90.41015625 59.86132812 C-90.42750733 46.44464409 -90.12543902 32.46405176 -83.625 20.375 C-82.77808594 18.74691406 -82.77808594 18.74691406 -81.9140625 17.0859375 C-75.03028601 5.98760398 -64.18261875 -1.13210283 -51.5625 -4.1875 C-34.80576634 -7.46347042 -15.52579933 -7.76289966 0 0 Z M-55.56640625 29.19140625 C-61.47973683 36.6515481 -62.15801458 45.17957674 -62.203125 54.32421875 C-62.20882507 55.22566116 -62.21452515 56.12710358 -62.22039795 57.05586243 C-62.22982537 58.96130203 -62.23637294 60.86675778 -62.24023438 62.7722168 C-62.24990885 65.66028993 -62.28094089 68.54764146 -62.3125 71.43554688 C-62.31903417 73.29426665 -62.32428301 75.15299147 -62.328125 77.01171875 C-62.3404718 77.86311935 -62.3528186 78.71451996 -62.36553955 79.59172058 C-62.33160483 88.90879384 -60.28561181 96.61182486 -53.75 103.37890625 C-46.54722408 110.05112055 -37.57313528 110.3701901 -28.14453125 110.18359375 C-18.70905284 109.63270246 -12.11519174 106.84084562 -5.1875 100.375 C1.47305551 91.40704769 0.43550636 79.15712929 0.33618164 68.57470703 C0.31248878 65.87372127 0.31565137 63.17372046 0.32226562 60.47265625 C0.31669001 58.72916087 0.30958087 56.98566958 0.30078125 55.2421875 C0.30169266 54.4481955 0.30260406 53.65420349 0.30354309 52.83615112 C0.16418598 41.65710462 -2.53602398 34.77620322 -10.1875 26.6875 C-22.73757793 19.15745324 -44.52493213 18.57358581 -55.56640625 29.19140625 Z " fill="#000000" transform="translate(1396,1694)"/>
<path d="M0 0 C3.62131045 3.34321316 6.10696646 6.78055771 8.33984375 11.16015625 C8.75105469 11.94648437 9.16226562 12.7328125 9.5859375 13.54296875 C13.42719885 22.23565014 12.62047255 30.82924879 12.33984375 40.16015625 C3.42984375 40.16015625 -5.48015625 40.16015625 -14.66015625 40.16015625 C-15.24609375 34.93554688 -15.24609375 34.93554688 -15.83203125 29.7109375 C-16.9836284 24.77319313 -19.05718425 22.19063825 -23.28515625 19.47265625 C-36.63804533 14.27986605 -54.25045512 14.01940622 -67.66015625 19.16015625 C-70.6961244 20.60954773 -72.93043087 22.23141486 -75.03515625 24.91015625 C-76.00373269 28.39703144 -76.33267083 31.58326553 -75.66015625 35.16015625 C-68.12371731 44.84986345 -48.32580036 45.073619 -36.96142578 46.49853516 C-36.0589209 46.60987793 -35.15641602 46.7212207 -34.2265625 46.8359375 C-24.0494795 48.12195237 -14.96095203 49.59158354 -5.66015625 54.16015625 C-4.88414063 54.54042969 -4.108125 54.92070313 -3.30859375 55.3125 C1.95743528 58.24135884 5.18882497 62.07937154 8.33984375 67.16015625 C8.75492188 67.76988281 9.17 68.37960937 9.59765625 69.0078125 C14.44979101 77.54146209 13.43845568 89.44490544 11.64453125 98.77734375 C8.2660163 109.93496035 1.15491478 117.68516411 -8.59765625 123.78515625 C-27.79097122 133.81876104 -53.97885398 133.17285256 -74.18359375 127.31640625 C-85.02766609 123.70983837 -94.93194928 117.62903098 -100.6640625 107.39453125 C-105.05499582 97.54506513 -105.02150431 87.70616624 -104.66015625 77.16015625 C-100.18100297 77.13129287 -95.70187334 77.11340438 -91.22265625 77.09765625 C-89.94326172 77.08927734 -88.66386719 77.08089844 -87.34570312 77.07226562 C-86.13076172 77.06904297 -84.91582031 77.06582031 -83.6640625 77.0625 C-82.53814697 77.05726318 -81.41223145 77.05202637 -80.25219727 77.04663086 C-77.66015625 77.16015625 -77.66015625 77.16015625 -76.66015625 78.16015625 C-76.47474494 80.05252884 -76.33704924 81.94966636 -76.22265625 83.84765625 C-75.80183616 90.21854518 -75.80183616 90.21854518 -73.66015625 96.16015625 C-71.49091173 97.48022198 -71.49091173 97.48022198 -68.66015625 98.16015625 C-67.36667334 98.67646245 -66.07513801 99.19766367 -64.78515625 99.72265625 C-54.35839076 103.93262642 -38.30471235 103.94277529 -27.66015625 100.16015625 C-25.41492753 98.95031172 -23.33377494 97.65825474 -21.25390625 96.18359375 C-19.66015625 95.16015625 -19.66015625 95.16015625 -17.66015625 95.16015625 C-17.00015625 91.53015625 -16.34015625 87.90015625 -15.66015625 84.16015625 C-19.99869099 80.99020517 -24.07942171 79.07020499 -29.28515625 77.66015625 C-30.04368896 77.44931396 -30.80222168 77.23847168 -31.58374023 77.02124023 C-38.8802614 75.12493277 -46.25486245 74.18083348 -53.72265625 73.22265625 C-72.09183897 70.84355953 -86.56348124 66.25683126 -99.91015625 52.91015625 C-105.98005128 43.37174978 -105.99688267 31.42462778 -104.00390625 20.59375 C-101.08988453 9.95505863 -95.87780957 1.6836819 -86.5078125 -4.30859375 C-61.89485133 -17.54354681 -22.4684045 -17.65138973 0 0 Z " fill="#000000" transform="translate(1565.66015625,1700.83984375)"/>
<path d="M0 0 C47.19 0 94.38 0 143 0 C143 9.24 143 18.48 143 28 C123.86 28 104.72 28 85 28 C85 87.4 85 146.8 85 208 C76.09 208 67.18 208 58 208 C58 148.6 58 89.2 58 28 C38.86 28 19.72 28 0 28 C0 18.76 0 9.52 0 0 Z " fill="#000000" transform="translate(661,1624)"/>
<path d="M0 0 C9.24 0 18.48 0 28 0 C28 68.64 28 137.28 28 208 C18.76 208 9.52 208 0 208 C0 139.36 0 70.72 0 0 Z " fill="#000000" transform="translate(1241,1624)"/>
<path d="M0 0 C8.91 0 17.82 0 27 0 C27 68.64 27 137.28 27 208 C18.09 208 9.18 208 0 208 C0 139.36 0 70.72 0 0 Z " fill="#000000" transform="translate(1177,1624)"/>
</svg>
