<?xml version="1.0" encoding="utf-8"?>
<!-- Generator: Adobe Illustrator 26.3.1, SVG Export Plug-In . SVG Version: 6.00 Build 0)  -->
<svg version="1.1" id="Layer_1" xmlns="http://www.w3.org/2000/svg" xmlns:xlink="http://www.w3.org/1999/xlink" x="0px" y="0px"
	 viewBox="0 0 1000 343.1" style="enable-background:new 0 0 1000 343.1;" xml:space="preserve">
<style type="text/css">
	.st0{fill:#1D1D1B;}
	.st1{fill:#FFFFFF;}
	.st2{fill:#002554;}
	.st3{fill:#2E609D;}
</style>
<g>
	<path class="st2" d="M316.9,217.1c0,4,3.3,7.3,7.3,7.3c4.1,0,7.3-3.3,7.3-7.3c0-4-3.3-7.3-7.3-7.3
		C320.2,209.8,316.9,213,316.9,217.1 M6.2,199.3c0,4,3.3,7.3,7.3,7.3c4,0,7.3-3.3,7.3-7.3s-3.3-7.3-7.3-7.3
		C9.5,192,6.2,195.2,6.2,199.3 M316.9,182.1c0,4,3.3,7.3,7.3,7.3c4.1,0,7.3-3.3,7.3-7.3c0-4-3.3-7.3-7.3-7.3
		C320.2,174.8,316.9,178.1,316.9,182.1 M6.2,164.3c0,4,3.3,7.3,7.3,7.3c4,0,7.3-3.3,7.3-7.3s-3.3-7.3-7.3-7.3
		C9.5,157,6.2,160.2,6.2,164.3 M316.9,147.1c0,4,3.3,7.3,7.3,7.3c4.1,0,7.3-3.3,7.3-7.3c0-4-3.3-7.3-7.3-7.3
		C320.2,139.8,316.9,143.1,316.9,147.1 M257.9,51.3V116H120.6v47.9h137.3v122H120.6V334h188.5V51.3H257.9z M30.1,30v281.8h51.8
		v-63.4h136.9v-47.9H81.9V77.7h136.9V30H30.1z M168.3,15.7c0,4,3.3,7.3,7.3,7.3s7.3-3.3,7.3-7.3c0-4-3.3-7.3-7.3-7.3
		S168.3,11.7,168.3,15.7"/>
	<path class="st2" d="M762.2,195.4c0-28,11.1-31.8,23.4-31.8c12.2,0,23.4,3.8,23.4,31.8s-11.1,31.8-23.4,31.8
		C773.3,227.2,762.2,223.4,762.2,195.4 M747.2,195.4c0,38.3,20.9,46.5,38.4,46.5c17.5,0,38.4-8.1,38.4-46.5s-20.9-46.5-38.4-46.5
		C768.1,148.9,747.2,157.1,747.2,195.4 M839.3,195.2c0,30,13.6,46.6,38.4,46.6c8.8,0,17-2,24-5.1v-15.7c-6.5,3.4-14.2,5.8-22.7,5.8
		c-12.4,0-24-3.8-24-31.6c0-27.7,11.6-31.6,24-31.6c8.5,0,16.2,2.5,22.7,6v-15.7c-7-3.1-15.2-5.1-24-5.1
		C852.8,148.7,839.3,165.2,839.3,195.2 M696.6,123.3v26.9h-14.2v13.9h14.2v51.3c0,24.4,19.8,26.4,25,26.4c4.6,0,8.3-1.1,11.6-2.5
		v-14.8c-2.1,1.4-5.2,2.7-9.5,2.7c-7.7,0-12.3-2.9-12.3-10.7v-52.4h21.7v-13.9h-21.7v-26.9H696.6z M602,152.7c0,39.4,58,24.8,58,56
		c0,14.1-13.9,17-25.5,17c-11.8,0-22.4-4.3-31-10.1V233c9.5,5.2,20.4,8.9,32.3,8.9c24.7,0,39.4-12.5,39.4-33.1c0-42.7-58-35.1-58-56
		c0-15,13.4-18.1,24.7-18.1c11.6,0,20.6,4.2,26.3,8V126c-7-4-16.5-7.6-28.1-7.6C612,118.4,602,136.1,602,152.7 M918.6,115.9v124.5
		h14.9v-31.1l10.1-10.8l30.2,41.9h19.9l-40.2-52.6l35.4-37.6h-20.2L933.5,188v-72.1H918.6z"/>
	<path class="st3" d="M469.7,240.4h15v-90.2h-15V240.4z M510.5,158v82.4h15v-73.2c5.1-1.8,11.8-3.3,19.1-3.3
		c16.3,0,18.5,8.7,18.5,17.2v59.3h15v-58.2c0-21-12.2-33.6-32.8-33.6C526.2,148.6,511.2,157.6,510.5,158 M381.5,119.8v120.6h15.2
		V188h47v-15.7h-47v-36.7h53.4v-15.7H381.5z M469.2,136.3h16v-17.5h-16V136.3z"/>
	<path class="st2" d="M381.4,297h12c2.9,0,5.2,0.8,6.9,2.4c1.7,1.6,2.5,3.9,2.5,6.8c0,1-0.1,2-0.3,3c-0.2,1-0.5,1.9-1,2.8
		c-0.4,0.8-1,1.6-1.7,2.2c-0.7,0.6-1.6,1.1-2.7,1.3v0.1c1.6,0.2,2.9,0.8,3.7,2c0.9,1.2,1.4,2.5,1.5,4.1l0.3,6.3c0,1,0.1,1.9,0.2,2.5
		c0.1,0.7,0.2,1.2,0.4,1.6c0.2,0.4,0.4,0.8,0.6,1c0.2,0.2,0.5,0.5,0.7,0.6h-5.4c-0.2-0.2-0.4-0.5-0.5-0.9c-0.1-0.4-0.3-0.9-0.4-1.4
		c-0.1-0.5-0.2-1-0.2-1.6c0-0.5-0.1-1-0.1-1.5l-0.3-5.7c-0.1-1.3-0.3-2.3-0.7-3c-0.4-0.7-0.8-1.2-1.3-1.6c-0.5-0.4-1.1-0.6-1.7-0.7
		c-0.6-0.1-1.2-0.1-1.8-0.1h-6.2V334h-4.7V297z M386.1,313.8h4.5c0.7,0,1.4,0,2.3-0.1c0.9-0.1,1.7-0.3,2.5-0.8
		c0.8-0.4,1.5-1.2,2-2.1c0.5-1,0.8-2.3,0.8-4.1c0-1.9-0.6-3.3-1.7-4.3c-1.1-1-2.8-1.6-5-1.6h-5.4V313.8z"/>
	<polygon class="st2" points="411.6,297 430.7,297 430.7,301.1 416.3,301.1 416.3,312.7 429.9,312.7 429.9,316.7 416.3,316.7 
		416.3,329.9 431.3,329.9 431.3,334 411.6,334 	"/>
	<path class="st2" d="M454.5,306.6c0-1-0.1-1.9-0.3-2.7c-0.2-0.8-0.5-1.5-1-2.1c-0.4-0.6-1-1-1.8-1.3c-0.7-0.3-1.6-0.5-2.7-0.5
		c-2,0-3.5,0.5-4.5,1.5c-1.1,1-1.6,2.5-1.6,4.5c0,1.7,0.4,3.1,1.3,4c0.9,0.9,2,1.7,3.2,2.2c1.3,0.6,2.7,1,4.2,1.5
		c1.5,0.4,2.9,1,4.2,1.7c1.3,0.7,2.4,1.7,3.3,3c0.9,1.3,1.3,3,1.3,5.3c0,2.1-0.4,3.9-1.1,5.3c-0.7,1.4-1.6,2.5-2.7,3.4
		c-1.1,0.8-2.3,1.4-3.7,1.8c-1.4,0.3-2.7,0.5-4,0.5c-2.2,0-4-0.3-5.4-0.8c-1.4-0.6-2.6-1.3-3.4-2.4c-0.8-1-1.4-2.3-1.8-3.9
		c-0.4-1.5-0.5-3.3-0.5-5.3h4.7c0,1,0,2.1,0.2,3.1c0.1,1,0.4,1.9,0.8,2.8c0.5,0.8,1.1,1.5,2.1,2c0.9,0.5,2.2,0.7,3.9,0.7
		c0.9,0,1.7-0.2,2.5-0.5c0.8-0.3,1.5-0.8,2-1.3c0.6-0.6,1-1.3,1.3-2c0.3-0.8,0.5-1.7,0.5-2.7c0-1.3-0.3-2.4-0.8-3.2
		c-0.5-0.8-1.2-1.5-2-2.1c-0.8-0.6-1.8-1-2.8-1.4c-1.1-0.4-2.1-0.7-3.2-1.1c-1.1-0.4-2.2-0.8-3.2-1.3c-1.1-0.5-2-1.1-2.8-1.8
		c-0.8-0.7-1.5-1.7-2-2.8c-0.5-1.1-0.8-2.5-0.8-4.2c0-0.9,0.1-1.9,0.4-3c0.2-1.1,0.8-2.3,1.5-3.3c0.8-1.1,1.9-2,3.3-2.7
		c1.4-0.7,3.3-1.1,5.6-1.1c3.6,0,6.1,0.9,7.8,2.6c1.6,1.7,2.5,4.3,2.6,7.7H454.5z"/>
	<path class="st2" d="M467.8,297h4.7v26c0,2.7,0.5,4.7,1.4,6c0.9,1.3,2.5,1.9,4.8,1.9c2.4,0,4-0.7,4.9-2c0.9-1.4,1.3-3.3,1.3-5.9
		v-26h4.7v26c0,3.6-0.9,6.4-2.7,8.5c-1.8,2.1-4.5,3.2-8.2,3.2c-3.8,0-6.5-1-8.2-3c-1.7-2-2.6-4.9-2.6-8.7V297z"/>
	<polygon class="st2" points="498.4,297 503.1,297 503.1,329.9 518,329.9 518,334 498.4,334 	"/>
	<polygon class="st2" points="531.2,334 526.5,334 526.5,301.1 517.3,301.1 517.3,297 540.5,297 540.5,301.1 531.2,301.1 	"/>
	<path class="st2" d="M562.8,306.6c0-1-0.1-1.9-0.3-2.7c-0.2-0.8-0.5-1.5-1-2.1c-0.4-0.6-1-1-1.8-1.3c-0.7-0.3-1.6-0.5-2.7-0.5
		c-2,0-3.5,0.5-4.5,1.5c-1,1-1.6,2.5-1.6,4.5c0,1.7,0.4,3.1,1.3,4c0.9,0.9,2,1.7,3.3,2.2c1.3,0.6,2.7,1,4.2,1.5
		c1.5,0.4,2.9,1,4.2,1.7c1.3,0.7,2.4,1.7,3.3,3c0.9,1.3,1.3,3,1.3,5.3c0,2.1-0.3,3.9-1.1,5.3c-0.7,1.4-1.6,2.5-2.7,3.4
		c-1.1,0.8-2.3,1.4-3.7,1.8c-1.4,0.3-2.7,0.5-4,0.5c-2.2,0-4-0.3-5.4-0.8c-1.4-0.6-2.6-1.3-3.4-2.4c-0.8-1-1.4-2.3-1.8-3.9
		c-0.4-1.5-0.5-3.3-0.5-5.3h4.7c0,1,0.1,2.1,0.2,3.1c0.1,1,0.4,1.9,0.8,2.8c0.4,0.8,1.1,1.5,2.1,2c0.9,0.5,2.2,0.7,3.9,0.7
		c0.9,0,1.7-0.2,2.5-0.5c0.8-0.3,1.5-0.8,2-1.3c0.6-0.6,1-1.3,1.3-2c0.3-0.8,0.5-1.7,0.5-2.7c0-1.3-0.3-2.4-0.8-3.2
		c-0.5-0.8-1.2-1.5-2-2.1s-1.7-1-2.8-1.4c-1.1-0.4-2.1-0.7-3.2-1.1c-1.1-0.4-2.2-0.8-3.2-1.3c-1.1-0.5-2-1.1-2.8-1.8
		c-0.8-0.7-1.5-1.7-2-2.8c-0.5-1.1-0.8-2.5-0.8-4.2c0-0.9,0.1-1.9,0.4-3c0.2-1.1,0.8-2.3,1.5-3.3c0.8-1.1,1.9-2,3.3-2.7
		c1.4-0.7,3.3-1.1,5.6-1.1c3.6,0,6.2,0.9,7.8,2.6c1.6,1.7,2.5,4.3,2.6,7.7H562.8z"/>
	<rect x="576.2" y="317.3" class="st2" width="12.6" height="4"/>
	<path class="st2" d="M598.5,297h9.9c2.9,0,5.2,0.5,6.9,1.5c1.7,1,3,2.3,3.9,4c0.9,1.7,1.5,3.6,1.8,5.9c0.3,2.2,0.4,4.6,0.4,7.2
		c0,2.3-0.2,4.6-0.5,6.8c-0.3,2.2-1,4.2-1.9,5.9c-0.9,1.7-2.2,3.1-3.8,4.2c-1.6,1-3.7,1.6-6.2,1.6h-10.4V297z M603.1,330.2h4.8
		c2,0,3.5-0.5,4.7-1.4c1.2-0.9,2-2.1,2.6-3.5c0.6-1.4,1-3,1.2-4.7c0.2-1.7,0.3-3.4,0.3-5.1c0-1.8-0.1-3.6-0.2-5.3
		c-0.1-1.8-0.5-3.3-1.1-4.7c-0.6-1.4-1.4-2.5-2.6-3.4c-1.2-0.9-2.8-1.3-4.9-1.3h-4.8V330.2z"/>
	<path class="st2" d="M630.1,297h11.9c2.9,0,5.2,0.8,6.9,2.4c1.7,1.6,2.5,3.9,2.5,6.8c0,1-0.1,2-0.3,3c-0.2,1-0.5,1.9-1,2.8
		c-0.4,0.8-1,1.6-1.7,2.2s-1.6,1.1-2.7,1.3v0.1c1.6,0.2,2.9,0.8,3.7,2c0.9,1.2,1.4,2.5,1.5,4.1l0.3,6.3c0,1,0.1,1.9,0.2,2.5
		c0.1,0.7,0.2,1.2,0.4,1.6c0.2,0.4,0.4,0.8,0.6,1c0.2,0.2,0.5,0.5,0.7,0.6H648c-0.2-0.2-0.4-0.5-0.5-0.9c-0.1-0.4-0.3-0.9-0.4-1.4
		c-0.1-0.5-0.2-1-0.2-1.6c0-0.5-0.1-1-0.1-1.5l-0.3-5.7c-0.1-1.3-0.3-2.3-0.7-3c-0.4-0.7-0.8-1.2-1.3-1.6c-0.5-0.4-1.1-0.6-1.7-0.7
		c-0.6-0.1-1.2-0.1-1.8-0.1h-6.2V334h-4.7V297z M634.8,313.8h4.5c0.7,0,1.4,0,2.3-0.1c0.9-0.1,1.7-0.3,2.5-0.8
		c0.8-0.4,1.5-1.2,2-2.1c0.5-1,0.8-2.3,0.8-4.1c0-1.9-0.6-3.3-1.7-4.3c-1.1-1-2.8-1.6-5-1.6h-5.4V313.8z"/>
	<rect x="660.4" y="297" class="st2" width="4.7" height="36.9"/>
	<polygon class="st2" points="671.2,297 675.8,297 683.2,328.7 683.3,328.7 690.6,297 695.3,297 686,334 680.2,334 	"/>
	<polygon class="st2" points="701.5,297 720.6,297 720.6,301.1 706.2,301.1 706.2,312.7 719.8,312.7 719.8,316.7 706.2,316.7 
		706.2,329.9 721.3,329.9 721.3,334 701.5,334 	"/>
	<polygon class="st2" points="728.9,297 733.4,297 734.8,297 747,327.9 747.1,327.9 747.1,297 751.6,297 751.6,334 747.1,334 
		745.4,334 733.5,304.1 733.4,304.1 733.4,334 728.9,334 	"/>
	<path class="st2" d="M776.8,297h9.4c0.5,0,1.2,0,1.9,0.1c0.8,0,1.6,0.1,2.4,0.3s1.7,0.5,2.5,0.9c0.8,0.4,1.6,1,2.3,1.8
		c0.7,0.8,1.2,1.8,1.6,3c0.4,1.2,0.6,2.7,0.6,4.4c0,1.7-0.3,3.3-0.8,4.6c-0.5,1.3-1.2,2.5-2.2,3.4c-0.9,0.9-2.1,1.6-3.4,2.1
		c-1.3,0.5-2.7,0.7-4.3,0.7h-5.6V334h-4.7V297z M781.4,314.6h5.4c1.7,0,3.1-0.6,4.3-1.8c1.2-1.2,1.8-3,1.8-5.4
		c0-2.1-0.5-3.7-1.5-4.9c-1-1.2-2.6-1.8-4.9-1.8h-5.1V314.6z"/>
	<polygon class="st2" points="805,297 809.7,297 809.7,329.9 824.6,329.9 824.6,334 805,334 	"/>
	<path class="st2" d="M838.6,297h6.1l9.9,36.9H850l-2.7-10.1h-11.9l-2.8,10.1H828L838.6,297z M836.3,320.1h10.1l-4.8-17.9h-0.1
		L836.3,320.1z"/>
	<polygon class="st2" points="860.6,297 865.1,297 866.5,297 878.7,327.9 878.8,327.9 878.8,297 883.4,297 883.4,334 878.9,334 
		877.1,334 865.3,304.1 865.2,304.1 865.2,334 860.6,334 	"/>
	<polygon class="st2" points="892.7,297 897.2,297 898.6,297 910.8,327.9 910.9,327.9 910.9,297 915.5,297 915.5,334 911,334 
		909.2,334 897.4,304.1 897.3,304.1 897.3,334 892.7,334 	"/>
	<rect x="924.9" y="297" class="st2" width="4.7" height="36.9"/>
	<polygon class="st2" points="938.8,297 943.3,297 944.7,297 956.9,327.9 957,327.9 957,297 961.6,297 961.6,334 957,334 955.3,334 
		943.4,304.1 943.3,304.1 943.3,334 938.8,334 	"/>
</g>
<path class="st2" d="M989,306.3c-0.1-1-0.2-1.9-0.5-2.8c-0.2-0.9-0.6-1.6-1-2.3c-0.5-0.7-1.1-1.2-1.9-1.6c-0.8-0.4-1.7-0.6-2.9-0.6
	c-1.6,0-2.9,0.4-3.8,1.2c-0.9,0.8-1.7,1.9-2.2,3.3c-0.5,1.4-0.8,3-1,4.9c-0.2,1.9-0.2,3.9-0.2,6c0,2.1,0.1,4.1,0.2,6
	c0.2,1.9,0.5,3.5,1,4.9c0.5,1.4,1.2,2.5,2.2,3.3c0.9,0.8,2.2,1.2,3.8,1.2c1.6,0,2.8-0.4,3.8-1.3c0.9-0.8,1.6-1.9,2-3.1
	s0.7-2.6,0.9-4c0.1-1.5,0.2-2.8,0.2-4h-7.3v-3.7h11.4V333h-3.4v-5h-0.1c-0.5,1.6-1.4,2.9-2.8,4.1c-1.4,1.1-3.1,1.7-5.2,1.7
	c-2.4,0-4.4-0.5-5.9-1.6c-1.5-1.1-2.6-2.5-3.4-4.3c-0.8-1.8-1.4-3.8-1.6-6.1c-0.3-2.3-0.4-4.7-0.4-7.2c0-2.3,0.1-4.6,0.4-6.9
	s0.8-4.4,1.7-6.2c0.9-1.8,2.1-3.3,3.6-4.4c1.6-1.1,3.6-1.7,6.2-1.7c1.8,0,3.2,0.2,4.5,0.7c1.2,0.4,2.2,1,3.1,1.7
	c0.8,0.7,1.4,1.5,1.9,2.4c0.5,0.9,0.8,1.7,1,2.5c0.2,0.8,0.4,1.5,0.4,2.2c0.1,0.7,0.1,1.2,0.1,1.5H989z"/>
</svg>
